<svg width="374" height="748" viewBox="0 0 374 748" fill="none" xmlns="http://www.w3.org/2000/svg">
<path d="M138.796 6.25479L256.883 10.1937C278.135 10.9026 294.787 28.7047 294.078 49.9558L292.928 84.4367L97.8835 77.9307L99.0337 43.4499C99.7425 22.1987 117.545 5.54593 138.796 6.25479Z" fill="white" stroke="black" stroke-width="3"/>
<path d="M88.6092 14.5297L295.751 21.4391C317.002 22.148 333.655 39.9501 332.946 61.2012L331.796 95.6821L47.6969 86.2056L48.8471 51.7248C49.5559 30.4737 67.358 13.8208 88.6092 14.5297Z" fill="white" stroke="black" stroke-width="3"/>
<mask id="path-3-inside-1_104_32" fill="white">
<path fill-rule="evenodd" clip-rule="evenodd" d="M349.273 342.604C347.848 342.253 346.372 342.023 344.856 341.926C331.077 341.047 319.194 351.505 318.315 365.284C318.25 366.304 318.247 367.314 318.303 368.31L30.5579 358.12C32.4511 354.871 33.6376 351.145 33.8932 347.137C34.6786 334.827 26.4157 324.03 14.8197 321.241L23.9754 62.7017C24.7573 40.6241 43.2885 23.3606 65.366 24.1424L320.206 33.1671C342.284 33.949 359.547 52.4802 358.766 74.5577L349.273 342.604Z"/>
</mask>
<path fill-rule="evenodd" clip-rule="evenodd" d="M349.273 342.604C347.848 342.253 346.372 342.023 344.856 341.926C331.077 341.047 319.194 351.505 318.315 365.284C318.25 366.304 318.247 367.314 318.303 368.31L30.5579 358.12C32.4511 354.871 33.6376 351.145 33.8932 347.137C34.6786 334.827 26.4157 324.03 14.8197 321.241L23.9754 62.7017C24.7573 40.6241 43.2885 23.3606 65.366 24.1424L320.206 33.1671C342.284 33.949 359.547 52.4802 358.766 74.5577L349.273 342.604Z" fill="white"/>
<path d="M349.273 342.604L352.271 342.71L352.141 346.4L348.556 345.517L349.273 342.604ZM318.303 368.31L321.298 368.141L321.483 371.424L318.197 371.308L318.303 368.31ZM30.5579 358.12L30.4517 361.118L25.4417 360.94L27.966 356.609L30.5579 358.12ZM14.8196 321.241L14.1181 324.158L11.7348 323.585L11.8215 321.135L14.8196 321.241ZM23.9754 62.7017L26.9735 62.8079L23.9754 62.7017ZM65.366 24.1424L65.4722 21.1443L65.366 24.1424ZM320.206 33.1671L320.1 36.1653L320.206 33.1671ZM358.766 74.5577L361.764 74.6639L358.766 74.5577ZM348.556 345.517C347.302 345.208 346.003 345.006 344.665 344.92L345.047 338.932C346.742 339.041 348.394 339.298 349.991 339.691L348.556 345.517ZM344.665 344.92C332.539 344.147 322.082 353.349 321.309 365.475L315.321 365.093C316.306 349.66 329.614 337.948 345.047 338.932L344.665 344.92ZM321.309 365.475C321.251 366.375 321.249 367.265 321.298 368.141L315.308 368.478C315.245 367.363 315.248 366.233 315.321 365.093L321.309 365.475ZM30.6641 355.122L318.409 365.312L318.197 371.308L30.4517 361.118L30.6641 355.122ZM36.8871 347.328C36.6011 351.811 35.2724 355.988 33.1498 359.63L27.966 356.609C29.6298 353.754 30.674 350.478 30.8993 346.946L36.8871 347.328ZM15.5212 318.325C28.5108 321.449 37.767 333.538 36.8871 347.328L30.8993 346.946C31.5903 336.116 24.3206 326.612 14.1181 324.158L15.5212 318.325ZM26.9735 62.8079L17.8178 321.348L11.8215 321.135L20.9773 62.5955L26.9735 62.8079ZM65.2598 27.1405C44.8381 26.4173 27.6967 42.3861 26.9735 62.8079L20.9773 62.5955C21.8178 38.8621 41.7388 20.3038 65.4722 21.1443L65.2598 27.1405ZM320.1 36.1653L65.2598 27.1405L65.4722 21.1443L320.312 30.169L320.1 36.1653ZM355.767 74.4516C356.491 54.0298 340.522 36.8885 320.1 36.1653L320.312 30.169C344.046 31.0095 362.604 50.9305 361.764 74.6639L355.767 74.4516ZM346.275 342.498L355.767 74.4516L361.764 74.6639L352.271 342.71L346.275 342.498Z" fill="black" mask="url(#path-3-inside-1_104_32)"/>
<rect width="3.00029" height="5" transform="matrix(0.999815 0.0192317 -0.0325135 0.999471 111.124 356.502)" fill="white"/>
<rect width="3.00029" height="5" transform="matrix(0.999815 0.0192317 -0.0325135 0.999471 116.121 356.672)" fill="white"/>
<rect width="3.00029" height="5" transform="matrix(0.999815 0.0192317 -0.0325135 0.999471 122.117 356.875)" fill="white"/>
<rect width="3.00029" height="5" transform="matrix(0.999815 0.0192317 -0.0325135 0.999471 128.113 357.079)" fill="white"/>
<rect width="3.00029" height="5" transform="matrix(0.999815 0.0192317 -0.0325135 0.999471 134.11 357.282)" fill="white"/>
<rect width="3.00029" height="5" transform="matrix(0.999815 0.0192317 -0.0325135 0.999471 140.106 357.485)" fill="white"/>
<rect width="3.00029" height="5" transform="matrix(0.999815 0.0192317 -0.0325135 0.999471 140.106 357.485)" fill="white"/>
<rect width="3.00029" height="5" transform="matrix(0.999815 0.0192317 -0.0325135 0.999471 146.103 357.689)" fill="white"/>
<rect width="3.00029" height="5" transform="matrix(0.999815 0.0192317 -0.0325135 0.999471 153.098 357.926)" fill="white"/>
<rect width="3.00029" height="5" transform="matrix(0.999815 0.0192317 -0.0325135 0.999471 159.095 358.129)" fill="white"/>
<rect width="3.00029" height="5" transform="matrix(0.999815 0.0192317 -0.0325135 0.999471 165.091 358.333)" fill="white"/>
<rect width="3.00029" height="5" transform="matrix(0.999815 0.0192317 -0.0325135 0.999471 105.127 356.299)" fill="white"/>
<rect width="3.00029" height="5" transform="matrix(0.999815 0.0192317 -0.0325135 0.999471 99.1308 356.095)" fill="white"/>
<rect width="3.00029" height="5" transform="matrix(0.999815 0.0192317 -0.0325135 0.999471 111.124 356.502)" fill="white"/>
<rect width="3.00029" height="5" transform="matrix(0.999815 0.0192317 -0.0325135 0.999471 116.121 356.672)" fill="white"/>
<rect width="3.00029" height="5" transform="matrix(0.999815 0.0192317 -0.0325135 0.999471 122.117 356.875)" fill="white"/>
<rect width="3.00029" height="5" transform="matrix(0.999815 0.0192317 -0.0325135 0.999471 128.113 357.079)" fill="white"/>
<rect width="3.00029" height="5" transform="matrix(0.999815 0.0192317 -0.0325135 0.999471 134.11 357.282)" fill="white"/>
<rect width="3.00029" height="5" transform="matrix(0.999815 0.0192317 -0.0325135 0.999471 140.106 357.485)" fill="white"/>
<rect width="3.00029" height="5" transform="matrix(0.999815 0.0192317 -0.0325135 0.999471 140.106 357.485)" fill="white"/>
<rect width="3.00029" height="5" transform="matrix(0.999815 0.0192317 -0.0325135 0.999471 146.103 357.689)" fill="white"/>
<rect width="3.00029" height="5" transform="matrix(0.999815 0.0192317 -0.0325135 0.999471 153.098 357.926)" fill="white"/>
<rect width="3.00029" height="5" transform="matrix(0.999815 0.0192317 -0.0325135 0.999471 105.127 356.299)" fill="white"/>
<rect width="3.00029" height="5" transform="matrix(0.999815 0.0192317 -0.0325135 0.999471 99.1308 356.095)" fill="white"/>
<rect width="3.00029" height="5" transform="matrix(0.999815 0.0192317 -0.0325135 0.999471 111.124 356.502)" fill="white"/>
<rect width="3.00029" height="5" transform="matrix(0.999815 0.0192317 -0.0325135 0.999471 116.121 356.672)" fill="white"/>
<rect width="3.00029" height="5" transform="matrix(0.999815 0.0192317 -0.0325135 0.999471 122.117 356.875)" fill="white"/>
<rect width="3.00029" height="5" transform="matrix(0.999815 0.0192317 -0.0325135 0.999471 128.113 357.079)" fill="white"/>
<rect width="3.00029" height="5" transform="matrix(0.999815 0.0192317 -0.0325135 0.999471 134.11 357.282)" fill="white"/>
<rect width="3.00029" height="5" transform="matrix(0.999815 0.0192317 -0.0325135 0.999471 140.106 357.485)" fill="white"/>
<rect width="3.00029" height="5" transform="matrix(0.999815 0.0192317 -0.0325135 0.999471 140.106 357.485)" fill="white"/>
<rect width="3.00029" height="5" transform="matrix(0.999815 0.0192317 -0.0325135 0.999471 146.103 357.689)" fill="white"/>
<rect width="3.00029" height="5" transform="matrix(0.999815 0.0192317 -0.0325135 0.999471 153.098 357.926)" fill="white"/>
<rect width="3.00029" height="5" transform="matrix(0.999815 0.0192317 -0.0325135 0.999471 105.127 356.299)" fill="white"/>
<rect width="3.00029" height="5" transform="matrix(0.999815 0.0192317 -0.0325135 0.999471 99.1308 356.095)" fill="white"/>
<rect width="3.00029" height="5" transform="matrix(0.999815 0.0192317 -0.0325135 0.999471 111.124 356.502)" fill="white"/>
<rect width="3.00029" height="5" transform="matrix(0.999815 0.0192317 -0.0325135 0.999471 116.121 356.672)" fill="white"/>
<rect width="3.00029" height="5" transform="matrix(0.999815 0.0192317 -0.0325135 0.999471 122.117 356.875)" fill="white"/>
<rect width="3.00029" height="5" transform="matrix(0.999815 0.0192317 -0.0325135 0.999471 128.113 357.079)" fill="white"/>
<rect width="3.00029" height="5" transform="matrix(0.999815 0.0192317 -0.0325135 0.999471 134.11 357.282)" fill="white"/>
<rect width="3.00029" height="5" transform="matrix(0.999815 0.0192317 -0.0325135 0.999471 140.106 357.485)" fill="white"/>
<rect width="3.00029" height="5" transform="matrix(0.999815 0.0192317 -0.0325135 0.999471 140.106 357.485)" fill="white"/>
<rect width="3.00029" height="5" transform="matrix(0.999815 0.0192317 -0.0325135 0.999471 146.103 357.689)" fill="white"/>
<rect width="3.00029" height="5" transform="matrix(0.999815 0.0192317 -0.0325135 0.999471 153.098 357.926)" fill="white"/>
<rect width="3.00029" height="5" transform="matrix(0.999815 0.0192317 -0.0325135 0.999471 105.127 356.299)" fill="white"/>
<rect width="3.00029" height="5" transform="matrix(0.999815 0.0192317 -0.0325135 0.999471 99.1308 356.095)" fill="white"/>
<rect width="3.00029" height="5" transform="matrix(0.999815 0.0192317 -0.0325135 0.999471 183.08 358.943)" fill="white"/>
<rect width="3.00029" height="5" transform="matrix(0.999815 0.0192317 -0.0325135 0.999471 188.077 359.112)" fill="white"/>
<rect width="3.00029" height="5" transform="matrix(0.999815 0.0192317 -0.0325135 0.999471 194.074 359.315)" fill="white"/>
<rect width="3.00029" height="5" transform="matrix(0.999815 0.0192317 -0.0325135 0.999471 200.07 359.519)" fill="white"/>
<rect width="3.00029" height="5" transform="matrix(0.999815 0.0192317 -0.0325135 0.999471 206.067 359.722)" fill="white"/>
<rect width="3.00029" height="5" transform="matrix(0.999815 0.0192317 -0.0325135 0.999471 212.063 359.926)" fill="white"/>
<rect width="3.00029" height="5" transform="matrix(0.999815 0.0192317 -0.0325135 0.999471 212.063 359.926)" fill="white"/>
<rect width="3.00029" height="5" transform="matrix(0.999815 0.0192317 -0.0325135 0.999471 218.059 360.129)" fill="white"/>
<rect width="3.00029" height="5" transform="matrix(0.999815 0.0192317 -0.0325135 0.999471 225.055 360.366)" fill="white"/>
<rect width="3.00029" height="5" transform="matrix(0.999815 0.0192317 -0.0325135 0.999471 231.052 360.57)" fill="white"/>
<rect width="3.00029" height="5" transform="matrix(0.999815 0.0192317 -0.0325135 0.999471 237.048 360.773)" fill="white"/>
<rect width="3.00029" height="5" transform="matrix(0.999815 0.0192317 -0.0325135 0.999471 177.084 358.739)" fill="white"/>
<rect width="3.00029" height="5" transform="matrix(0.999815 0.0192317 -0.0325135 0.999471 171.088 358.536)" fill="white"/>
<rect width="3.00029" height="5" transform="matrix(0.999815 0.0192317 -0.0325135 0.999471 183.08 358.943)" fill="white"/>
<rect width="3.00029" height="5" transform="matrix(0.999815 0.0192317 -0.0325135 0.999471 188.077 359.112)" fill="white"/>
<rect width="3.00029" height="5" transform="matrix(0.999815 0.0192317 -0.0325135 0.999471 194.074 359.315)" fill="white"/>
<rect width="3.00029" height="5" transform="matrix(0.999815 0.0192317 -0.0325135 0.999471 200.07 359.519)" fill="white"/>
<rect width="3.00029" height="5" transform="matrix(0.999815 0.0192317 -0.0325135 0.999471 206.067 359.722)" fill="white"/>
<rect width="3.00029" height="5" transform="matrix(0.999815 0.0192317 -0.0325135 0.999471 212.063 359.926)" fill="white"/>
<rect width="3.00029" height="5" transform="matrix(0.999815 0.0192317 -0.0325135 0.999471 212.063 359.926)" fill="white"/>
<rect width="3.00029" height="5" transform="matrix(0.999815 0.0192317 -0.0325135 0.999471 218.059 360.129)" fill="white"/>
<rect width="3.00029" height="5" transform="matrix(0.999815 0.0192317 -0.0325135 0.999471 225.055 360.366)" fill="white"/>
<rect width="3.00029" height="5" transform="matrix(0.999815 0.0192317 -0.0325135 0.999471 177.084 358.739)" fill="white"/>
<rect width="3.00029" height="5" transform="matrix(0.999815 0.0192317 -0.0325135 0.999471 171.088 358.536)" fill="white"/>
<rect width="3.00029" height="5" transform="matrix(0.999815 0.0192317 -0.0325135 0.999471 183.08 358.943)" fill="white"/>
<rect width="3.00029" height="5" transform="matrix(0.999815 0.0192317 -0.0325135 0.999471 188.077 359.112)" fill="white"/>
<rect width="3.00029" height="5" transform="matrix(0.999815 0.0192317 -0.0325135 0.999471 194.074 359.315)" fill="white"/>
<rect width="3.00029" height="5" transform="matrix(0.999815 0.0192317 -0.0325135 0.999471 200.07 359.519)" fill="white"/>
<rect width="3.00029" height="5" transform="matrix(0.999815 0.0192317 -0.0325135 0.999471 206.067 359.722)" fill="white"/>
<rect width="3.00029" height="5" transform="matrix(0.999815 0.0192317 -0.0325135 0.999471 212.063 359.926)" fill="white"/>
<rect width="3.00029" height="5" transform="matrix(0.999815 0.0192317 -0.0325135 0.999471 212.063 359.926)" fill="white"/>
<rect width="3.00029" height="5" transform="matrix(0.999815 0.0192317 -0.0325135 0.999471 218.059 360.129)" fill="white"/>
<rect width="3.00029" height="5" transform="matrix(0.999815 0.0192317 -0.0325135 0.999471 225.055 360.366)" fill="white"/>
<rect width="3.00029" height="5" transform="matrix(0.999815 0.0192317 -0.0325135 0.999471 177.084 358.739)" fill="white"/>
<rect width="3.00029" height="5" transform="matrix(0.999815 0.0192317 -0.0325135 0.999471 171.088 358.536)" fill="white"/>
<rect width="3.00029" height="5" transform="matrix(0.999815 0.0192317 -0.0325135 0.999471 183.08 358.943)" fill="white"/>
<rect width="3.00029" height="5" transform="matrix(0.999815 0.0192317 -0.0325135 0.999471 188.077 359.112)" fill="white"/>
<rect width="3.00029" height="5" transform="matrix(0.999815 0.0192317 -0.0325135 0.999471 194.074 359.315)" fill="white"/>
<rect width="3.00029" height="5" transform="matrix(0.999815 0.0192317 -0.0325135 0.999471 200.07 359.519)" fill="white"/>
<rect width="3.00029" height="5" transform="matrix(0.999815 0.0192317 -0.0325135 0.999471 206.067 359.722)" fill="white"/>
<rect width="3.00029" height="5" transform="matrix(0.999815 0.0192317 -0.0325135 0.999471 212.063 359.926)" fill="white"/>
<rect width="3.00029" height="5" transform="matrix(0.999815 0.0192317 -0.0325135 0.999471 212.063 359.926)" fill="white"/>
<rect width="3.00029" height="5" transform="matrix(0.999815 0.0192317 -0.0325135 0.999471 218.059 360.129)" fill="white"/>
<rect width="3.00029" height="5" transform="matrix(0.999815 0.0192317 -0.0325135 0.999471 225.055 360.366)" fill="white"/>
<rect width="3.00029" height="5" transform="matrix(0.999815 0.0192317 -0.0325135 0.999471 177.084 358.739)" fill="white"/>
<rect width="3.00029" height="5" transform="matrix(0.999815 0.0192317 -0.0325135 0.999471 171.088 358.536)" fill="white"/>
<rect width="3.00029" height="5" transform="matrix(0.999815 0.0192317 -0.0325135 0.999471 255.037 361.383)" fill="white"/>
<rect width="3.00029" height="5" transform="matrix(0.999815 0.0192317 -0.0325135 0.999471 260.034 361.552)" fill="white"/>
<rect width="3.00029" height="5" transform="matrix(0.999815 0.0192317 -0.0325135 0.999471 266.031 361.756)" fill="white"/>
<rect width="3.00029" height="5" transform="matrix(0.999815 0.0192317 -0.0325135 0.999471 272.027 361.959)" fill="white"/>
<rect width="3.00029" height="5" transform="matrix(0.999815 0.0192317 -0.0325135 0.999471 278.023 362.163)" fill="white"/>
<rect width="3.00029" height="5" transform="matrix(0.999815 0.0192317 -0.0325135 0.999471 284.02 362.366)" fill="white"/>
<rect width="3.00029" height="5" transform="matrix(0.999815 0.0192317 -0.0325135 0.999471 284.02 362.366)" fill="white"/>
<rect width="3.00029" height="5" transform="matrix(0.999815 0.0192317 -0.0325135 0.999471 290.016 362.569)" fill="white"/>
<rect width="3.00029" height="5" transform="matrix(0.999815 0.0192317 -0.0325135 0.999471 297.012 362.807)" fill="white"/>
<rect width="3.00029" height="5" transform="matrix(0.999815 0.0192317 -0.0325135 0.999471 303.009 363.01)" fill="white"/>
<rect width="3.00029" height="5" transform="matrix(0.999815 0.0192317 -0.0325135 0.999471 309.005 363.214)" fill="white"/>
<rect width="3.00029" height="5" transform="matrix(0.999815 0.0192317 -0.0325135 0.999471 249.041 361.18)" fill="white"/>
<rect width="3.00029" height="5" transform="matrix(0.999815 0.0192317 -0.0325135 0.999471 243.045 360.977)" fill="white"/>
<rect width="3.00029" height="5" transform="matrix(0.999815 0.0192317 -0.0325135 0.999471 255.037 361.383)" fill="white"/>
<rect width="3.00029" height="5" transform="matrix(0.999815 0.0192317 -0.0325135 0.999471 260.034 361.552)" fill="white"/>
<rect width="3.00029" height="5" transform="matrix(0.999815 0.0192317 -0.0325135 0.999471 266.031 361.756)" fill="white"/>
<rect width="3.00029" height="5" transform="matrix(0.999815 0.0192317 -0.0325135 0.999471 272.027 361.959)" fill="white"/>
<rect width="3.00029" height="5" transform="matrix(0.999815 0.0192317 -0.0325135 0.999471 278.023 362.163)" fill="white"/>
<rect width="3.00029" height="5" transform="matrix(0.999815 0.0192317 -0.0325135 0.999471 284.02 362.366)" fill="white"/>
<rect width="3.00029" height="5" transform="matrix(0.999815 0.0192317 -0.0325135 0.999471 284.02 362.366)" fill="white"/>
<rect width="3.00029" height="5" transform="matrix(0.999815 0.0192317 -0.0325135 0.999471 290.016 362.569)" fill="white"/>
<rect width="3.00029" height="5" transform="matrix(0.999815 0.0192317 -0.0325135 0.999471 297.012 362.807)" fill="white"/>
<rect width="3.00029" height="5" transform="matrix(0.999815 0.0192317 -0.0325135 0.999471 249.041 361.18)" fill="white"/>
<rect width="3.00029" height="5" transform="matrix(0.999815 0.0192317 -0.0325135 0.999471 243.045 360.977)" fill="white"/>
<rect width="3.00029" height="5" transform="matrix(0.999815 0.0192317 -0.0325135 0.999471 255.037 361.383)" fill="white"/>
<rect width="3.00029" height="5" transform="matrix(0.999815 0.0192317 -0.0325135 0.999471 260.034 361.552)" fill="white"/>
<rect width="3.00029" height="5" transform="matrix(0.999815 0.0192317 -0.0325135 0.999471 266.031 361.756)" fill="white"/>
<rect width="3.00029" height="5" transform="matrix(0.999815 0.0192317 -0.0325135 0.999471 272.027 361.959)" fill="white"/>
<rect width="3.00029" height="5" transform="matrix(0.999815 0.0192317 -0.0325135 0.999471 278.023 362.163)" fill="white"/>
<rect width="3.00029" height="5" transform="matrix(0.999815 0.0192317 -0.0325135 0.999471 284.02 362.366)" fill="white"/>
<rect width="3.00029" height="5" transform="matrix(0.999815 0.0192317 -0.0325135 0.999471 284.02 362.366)" fill="white"/>
<rect width="3.00029" height="5" transform="matrix(0.999815 0.0192317 -0.0325135 0.999471 290.016 362.569)" fill="white"/>
<rect width="3.00029" height="5" transform="matrix(0.999815 0.0192317 -0.0325135 0.999471 297.012 362.807)" fill="white"/>
<rect width="3.00029" height="5" transform="matrix(0.999815 0.0192317 -0.0325135 0.999471 249.041 361.18)" fill="white"/>
<rect width="3.00029" height="5" transform="matrix(0.999815 0.0192317 -0.0325135 0.999471 243.045 360.977)" fill="white"/>
<rect width="3.00029" height="5" transform="matrix(0.999815 0.0192317 -0.0325135 0.999471 255.037 361.383)" fill="white"/>
<rect width="3.00029" height="5" transform="matrix(0.999815 0.0192317 -0.0325135 0.999471 260.034 361.552)" fill="white"/>
<rect width="3.00029" height="5" transform="matrix(0.999815 0.0192317 -0.0325135 0.999471 266.031 361.756)" fill="white"/>
<rect width="3.00029" height="5" transform="matrix(0.999815 0.0192317 -0.0325135 0.999471 272.027 361.959)" fill="white"/>
<rect width="3.00029" height="5" transform="matrix(0.999815 0.0192317 -0.0325135 0.999471 278.023 362.163)" fill="white"/>
<rect width="3.00029" height="5" transform="matrix(0.999815 0.0192317 -0.0325135 0.999471 284.02 362.366)" fill="white"/>
<rect width="3.00029" height="5" transform="matrix(0.999815 0.0192317 -0.0325135 0.999471 284.02 362.366)" fill="white"/>
<rect width="3.00029" height="5" transform="matrix(0.999815 0.0192317 -0.0325135 0.999471 290.016 362.569)" fill="white"/>
<rect width="3.00029" height="5" transform="matrix(0.999815 0.0192317 -0.0325135 0.999471 297.012 362.807)" fill="white"/>
<rect width="3.00029" height="5" transform="matrix(0.999815 0.0192317 -0.0325135 0.999471 249.041 361.18)" fill="white"/>
<rect width="3.00029" height="5" transform="matrix(0.999815 0.0192317 -0.0325135 0.999471 243.045 360.977)" fill="white"/>
<rect width="3.00029" height="5" transform="matrix(0.999815 0.0192317 -0.0325135 0.999471 51.1596 354.469)" fill="white"/>
<rect width="3.00029" height="5" transform="matrix(0.999815 0.0192317 -0.0325135 0.999471 56.1566 354.638)" fill="white"/>
<rect width="3.00029" height="5" transform="matrix(0.999815 0.0192317 -0.0325135 0.999471 62.153 354.841)" fill="white"/>
<rect width="3.00029" height="5" transform="matrix(0.999815 0.0192317 -0.0325135 0.999471 68.1494 355.045)" fill="white"/>
<rect width="3.00029" height="5" transform="matrix(0.999815 0.0192317 -0.0325135 0.999471 74.1458 355.248)" fill="white"/>
<rect width="3.00029" height="5" transform="matrix(0.999815 0.0192317 -0.0325135 0.999471 80.1422 355.451)" fill="white"/>
<rect width="3.00029" height="5" transform="matrix(0.999815 0.0192317 -0.0325135 0.999471 80.1422 355.451)" fill="white"/>
<rect width="3.00029" height="5" transform="matrix(0.999815 0.0192317 -0.0325135 0.999471 86.1385 355.655)" fill="white"/>
<rect width="3.00029" height="5" transform="matrix(0.999815 0.0192317 -0.0325135 0.999471 93.1344 355.892)" fill="white"/>
<rect width="3.00029" height="5" transform="matrix(0.999815 0.0192317 -0.0325135 0.999471 45.1632 354.265)" fill="white"/>
<rect width="3.00029" height="5" transform="matrix(0.999815 0.0192317 -0.0325135 0.999471 39.1667 354.062)" fill="white"/>
<rect width="3.00029" height="5" transform="matrix(0.999815 0.0192317 -0.0325135 0.999471 51.1596 354.469)" fill="white"/>
<rect width="3.00029" height="5" transform="matrix(0.999815 0.0192317 -0.0325135 0.999471 56.1566 354.638)" fill="white"/>
<rect width="3.00029" height="5" transform="matrix(0.999815 0.0192317 -0.0325135 0.999471 62.153 354.841)" fill="white"/>
<rect width="3.00029" height="5" transform="matrix(0.999815 0.0192317 -0.0325135 0.999471 68.1494 355.045)" fill="white"/>
<rect width="3.00029" height="5" transform="matrix(0.999815 0.0192317 -0.0325135 0.999471 74.1458 355.248)" fill="white"/>
<rect width="3.00029" height="5" transform="matrix(0.999815 0.0192317 -0.0325135 0.999471 80.1422 355.451)" fill="white"/>
<rect width="3.00029" height="5" transform="matrix(0.999815 0.0192317 -0.0325135 0.999471 80.1422 355.451)" fill="white"/>
<rect width="3.00029" height="5" transform="matrix(0.999815 0.0192317 -0.0325135 0.999471 86.1385 355.655)" fill="white"/>
<rect width="3.00029" height="5" transform="matrix(0.999815 0.0192317 -0.0325135 0.999471 93.1344 355.892)" fill="white"/>
<rect width="3.00029" height="5" transform="matrix(0.999815 0.0192317 -0.0325135 0.999471 45.1632 354.265)" fill="white"/>
<rect width="3.00029" height="5" transform="matrix(0.999815 0.0192317 -0.0325135 0.999471 39.1667 354.062)" fill="white"/>
<rect width="3.00029" height="5" transform="matrix(0.999815 0.0192317 -0.0325135 0.999471 51.1596 354.469)" fill="white"/>
<rect width="3.00029" height="5" transform="matrix(0.999815 0.0192317 -0.0325135 0.999471 56.1566 354.638)" fill="white"/>
<rect width="3.00029" height="5" transform="matrix(0.999815 0.0192317 -0.0325135 0.999471 62.153 354.841)" fill="white"/>
<rect width="3.00029" height="5" transform="matrix(0.999815 0.0192317 -0.0325135 0.999471 68.1494 355.045)" fill="white"/>
<rect width="3.00029" height="5" transform="matrix(0.999815 0.0192317 -0.0325135 0.999471 74.1458 355.248)" fill="white"/>
<rect width="3.00029" height="5" transform="matrix(0.999815 0.0192317 -0.0325135 0.999471 80.1422 355.451)" fill="white"/>
<rect width="3.00029" height="5" transform="matrix(0.999815 0.0192317 -0.0325135 0.999471 80.1422 355.451)" fill="white"/>
<rect width="3.00029" height="5" transform="matrix(0.999815 0.0192317 -0.0325135 0.999471 86.1385 355.655)" fill="white"/>
<rect width="3.00029" height="5" transform="matrix(0.999815 0.0192317 -0.0325135 0.999471 93.1344 355.892)" fill="white"/>
<rect width="3.00029" height="5" transform="matrix(0.999815 0.0192317 -0.0325135 0.999471 45.1632 354.265)" fill="white"/>
<rect width="3.00029" height="5" transform="matrix(0.999815 0.0192317 -0.0325135 0.999471 39.1667 354.062)" fill="white"/>
<rect width="3.00029" height="5" transform="matrix(0.999815 0.0192317 -0.0325135 0.999471 51.1596 354.469)" fill="white"/>
<rect width="3.00029" height="5" transform="matrix(0.999815 0.0192317 -0.0325135 0.999471 56.1566 354.638)" fill="white"/>
<rect width="3.00029" height="5" transform="matrix(0.999815 0.0192317 -0.0325135 0.999471 62.153 354.841)" fill="white"/>
<rect width="3.00029" height="5" transform="matrix(0.999815 0.0192317 -0.0325135 0.999471 68.1494 355.045)" fill="white"/>
<rect width="3.00029" height="5" transform="matrix(0.999815 0.0192317 -0.0325135 0.999471 74.1458 355.248)" fill="white"/>
<rect width="3.00029" height="5" transform="matrix(0.999815 0.0192317 -0.0325135 0.999471 80.1422 355.451)" fill="white"/>
<rect width="3.00029" height="5" transform="matrix(0.999815 0.0192317 -0.0325135 0.999471 80.1422 355.451)" fill="white"/>
<rect width="3.00029" height="5" transform="matrix(0.999815 0.0192317 -0.0325135 0.999471 86.1385 355.655)" fill="white"/>
<rect width="3.00029" height="5" transform="matrix(0.999815 0.0192317 -0.0325135 0.999471 93.1344 355.892)" fill="white"/>
<rect width="3.00029" height="5" transform="matrix(0.999815 0.0192317 -0.0325135 0.999471 45.1632 354.265)" fill="white"/>
<rect width="3.00029" height="5" transform="matrix(0.999815 0.0192317 -0.0325135 0.999471 39.1667 354.062)" fill="white"/>
<path d="M138.05 741.64L256.137 737.702C277.388 736.993 294.041 719.191 293.332 697.939L292.182 663.459L97.1375 669.965L98.2876 704.445C98.9965 725.697 116.799 742.349 138.05 741.64Z" fill="white" stroke="black" stroke-width="3"/>
<path d="M87.8631 733.366L295.005 726.456C316.256 725.747 332.909 707.945 332.2 686.694L331.05 652.213L46.9509 661.69L48.101 696.17C48.8099 717.422 66.612 734.074 87.8631 733.366Z" fill="white" stroke="black" stroke-width="3"/>
<mask id="path-189-inside-2_104_32" fill="white">
<path fill-rule="evenodd" clip-rule="evenodd" d="M348.527 405.291C347.102 405.642 345.626 405.872 344.11 405.969C330.331 406.848 318.448 396.391 317.569 382.612C317.504 381.591 317.501 380.582 317.557 379.586L29.8119 389.776C31.705 393.024 32.8915 396.751 33.1472 400.758C33.9326 413.068 25.6697 423.865 14.0736 426.654L23.2294 685.194C24.0112 707.271 42.5424 724.535 64.6199 723.753L319.46 714.728C341.538 713.947 358.801 695.415 358.02 673.338L348.527 405.291Z"/>
</mask>
<path fill-rule="evenodd" clip-rule="evenodd" d="M348.527 405.291C347.102 405.642 345.626 405.872 344.11 405.969C330.331 406.848 318.448 396.391 317.569 382.612C317.504 381.591 317.501 380.582 317.557 379.586L29.8119 389.776C31.705 393.024 32.8915 396.751 33.1472 400.758C33.9326 413.068 25.6697 423.865 14.0736 426.654L23.2294 685.194C24.0112 707.271 42.5424 724.535 64.6199 723.753L319.46 714.728C341.538 713.947 358.801 695.415 358.02 673.338L348.527 405.291Z" fill="#FED951"/>
<path d="M348.527 405.291L351.525 405.185L351.395 401.495L347.809 402.378L348.527 405.291ZM317.557 379.586L320.552 379.754L320.736 376.471L317.451 376.588L317.557 379.586ZM29.8118 389.776L29.7057 386.778L24.6956 386.955L27.2199 391.286L29.8118 389.776ZM14.0736 426.654L13.3721 423.737L10.9887 424.31L11.0755 426.76L14.0736 426.654ZM23.2293 685.194L26.2275 685.088L23.2293 685.194ZM64.6199 723.753L64.7261 726.751L64.6199 723.753ZM319.46 714.728L319.354 711.73L319.46 714.728ZM358.02 673.338L361.018 673.232L358.02 673.338ZM347.809 402.378C346.556 402.687 345.257 402.89 343.919 402.975L344.301 408.963C345.995 408.855 347.648 408.598 349.245 408.204L347.809 402.378ZM343.919 402.975C331.793 403.749 321.336 394.546 320.563 382.421L314.575 382.803C315.56 398.235 328.868 409.948 344.301 408.963L343.919 402.975ZM320.563 382.421C320.505 381.52 320.503 380.63 320.552 379.754L314.561 379.418C314.499 380.533 314.502 381.662 314.575 382.803L320.563 382.421ZM29.918 392.774L317.663 382.584L317.451 376.588L29.7057 386.778L29.918 392.774ZM36.1411 400.567C35.855 396.084 34.5263 391.907 32.4038 388.265L27.2199 391.286C28.8837 394.141 29.9279 397.417 30.1532 400.949L36.1411 400.567ZM14.7751 429.571C27.7648 426.447 37.0209 414.358 36.1411 400.567L30.1532 400.949C30.8442 411.779 23.5745 421.283 13.3721 423.737L14.7751 429.571ZM26.2275 685.088L17.0717 426.548L11.0755 426.76L20.2312 685.3L26.2275 685.088ZM64.5138 720.755C44.092 721.478 26.9507 705.509 26.2275 685.088L20.2312 685.3C21.0717 709.033 40.9927 727.592 64.7261 726.751L64.5138 720.755ZM319.354 711.73L64.5138 720.755L64.7261 726.751L319.566 717.726L319.354 711.73ZM355.021 673.444C355.745 693.866 339.776 711.007 319.354 711.73L319.566 717.726C343.3 716.886 361.858 696.965 361.018 673.232L355.021 673.444ZM345.529 405.398L355.021 673.444L361.018 673.232L351.525 405.185L345.529 405.398Z" fill="black" mask="url(#path-189-inside-2_104_32)"/>
<rect width="3.00029" height="5" transform="matrix(0.999815 -0.0192317 -0.0325135 -0.999471 110.378 391.394)" fill="#FED951"/>
<rect width="3.00029" height="5" transform="matrix(0.999815 -0.0192317 -0.0325135 -0.999471 115.375 391.224)" fill="#FED951"/>
<rect width="3.00029" height="5" transform="matrix(0.999815 -0.0192317 -0.0325135 -0.999471 121.371 391.021)" fill="#FED951"/>
<rect width="3.00029" height="5" transform="matrix(0.999815 -0.0192317 -0.0325135 -0.999471 127.367 390.817)" fill="#FED951"/>
<rect width="3.00029" height="5" transform="matrix(0.999815 -0.0192317 -0.0325135 -0.999471 133.364 390.614)" fill="#FED951"/>
<rect width="3.00029" height="5" transform="matrix(0.999815 -0.0192317 -0.0325135 -0.999471 139.36 390.41)" fill="#FED951"/>
<rect width="3.00029" height="5" transform="matrix(0.999815 -0.0192317 -0.0325135 -0.999471 139.36 390.41)" fill="#FED951"/>
<rect width="3.00029" height="5" transform="matrix(0.999815 -0.0192317 -0.0325135 -0.999471 145.357 390.207)" fill="#FED951"/>
<rect width="3.00029" height="5" transform="matrix(0.999815 -0.0192317 -0.0325135 -0.999471 152.352 389.969)" fill="#FED951"/>
<rect width="3.00029" height="5" transform="matrix(0.999815 -0.0192317 -0.0325135 -0.999471 158.349 389.766)" fill="#FED951"/>
<rect width="3.00029" height="5" transform="matrix(0.999815 -0.0192317 -0.0325135 -0.999471 164.345 389.563)" fill="#FED951"/>
<rect width="3.00029" height="5" transform="matrix(0.999815 -0.0192317 -0.0325135 -0.999471 104.381 391.597)" fill="#FED951"/>
<rect width="3.00029" height="5" transform="matrix(0.999815 -0.0192317 -0.0325135 -0.999471 98.3847 391.8)" fill="#FED951"/>
<rect width="3.00029" height="5" transform="matrix(0.999815 -0.0192317 -0.0325135 -0.999471 110.378 391.394)" fill="#FED951"/>
<rect width="3.00029" height="5" transform="matrix(0.999815 -0.0192317 -0.0325135 -0.999471 115.375 391.224)" fill="#FED951"/>
<rect width="3.00029" height="5" transform="matrix(0.999815 -0.0192317 -0.0325135 -0.999471 121.371 391.021)" fill="#FED951"/>
<rect width="3.00029" height="5" transform="matrix(0.999815 -0.0192317 -0.0325135 -0.999471 127.367 390.817)" fill="#FED951"/>
<rect width="3.00029" height="5" transform="matrix(0.999815 -0.0192317 -0.0325135 -0.999471 133.364 390.614)" fill="#FED951"/>
<rect width="3.00029" height="5" transform="matrix(0.999815 -0.0192317 -0.0325135 -0.999471 139.36 390.41)" fill="#FED951"/>
<rect width="3.00029" height="5" transform="matrix(0.999815 -0.0192317 -0.0325135 -0.999471 139.36 390.41)" fill="#FED951"/>
<rect width="3.00029" height="5" transform="matrix(0.999815 -0.0192317 -0.0325135 -0.999471 145.357 390.207)" fill="#FED951"/>
<rect width="3.00029" height="5" transform="matrix(0.999815 -0.0192317 -0.0325135 -0.999471 152.352 389.969)" fill="#FED951"/>
<rect width="3.00029" height="5" transform="matrix(0.999815 -0.0192317 -0.0325135 -0.999471 104.381 391.597)" fill="#FED951"/>
<rect width="3.00029" height="5" transform="matrix(0.999815 -0.0192317 -0.0325135 -0.999471 98.3847 391.8)" fill="#FED951"/>
<rect width="3.00029" height="5" transform="matrix(0.999815 -0.0192317 -0.0325135 -0.999471 110.378 391.394)" fill="#FED951"/>
<rect width="3.00029" height="5" transform="matrix(0.999815 -0.0192317 -0.0325135 -0.999471 115.375 391.224)" fill="#FED951"/>
<rect width="3.00029" height="5" transform="matrix(0.999815 -0.0192317 -0.0325135 -0.999471 121.371 391.021)" fill="#FED951"/>
<rect width="3.00029" height="5" transform="matrix(0.999815 -0.0192317 -0.0325135 -0.999471 127.367 390.817)" fill="#FED951"/>
<rect width="3.00029" height="5" transform="matrix(0.999815 -0.0192317 -0.0325135 -0.999471 133.364 390.614)" fill="#FED951"/>
<rect width="3.00029" height="5" transform="matrix(0.999815 -0.0192317 -0.0325135 -0.999471 139.36 390.41)" fill="#FED951"/>
<rect width="3.00029" height="5" transform="matrix(0.999815 -0.0192317 -0.0325135 -0.999471 139.36 390.41)" fill="#FED951"/>
<rect width="3.00029" height="5" transform="matrix(0.999815 -0.0192317 -0.0325135 -0.999471 145.357 390.207)" fill="#FED951"/>
<rect width="3.00029" height="5" transform="matrix(0.999815 -0.0192317 -0.0325135 -0.999471 152.352 389.969)" fill="#FED951"/>
<rect width="3.00029" height="5" transform="matrix(0.999815 -0.0192317 -0.0325135 -0.999471 104.381 391.597)" fill="#FED951"/>
<rect width="3.00029" height="5" transform="matrix(0.999815 -0.0192317 -0.0325135 -0.999471 98.3847 391.8)" fill="#FED951"/>
<rect width="3.00029" height="5" transform="matrix(0.999815 -0.0192317 -0.0325135 -0.999471 110.378 391.394)" fill="#FED951"/>
<rect width="3.00029" height="5" transform="matrix(0.999815 -0.0192317 -0.0325135 -0.999471 115.375 391.224)" fill="#FED951"/>
<rect width="3.00029" height="5" transform="matrix(0.999815 -0.0192317 -0.0325135 -0.999471 121.371 391.021)" fill="#FED951"/>
<rect width="3.00029" height="5" transform="matrix(0.999815 -0.0192317 -0.0325135 -0.999471 127.367 390.817)" fill="#FED951"/>
<rect width="3.00029" height="5" transform="matrix(0.999815 -0.0192317 -0.0325135 -0.999471 133.364 390.614)" fill="#FED951"/>
<rect width="3.00029" height="5" transform="matrix(0.999815 -0.0192317 -0.0325135 -0.999471 139.36 390.41)" fill="#FED951"/>
<rect width="3.00029" height="5" transform="matrix(0.999815 -0.0192317 -0.0325135 -0.999471 139.36 390.41)" fill="#FED951"/>
<rect width="3.00029" height="5" transform="matrix(0.999815 -0.0192317 -0.0325135 -0.999471 145.357 390.207)" fill="#FED951"/>
<rect width="3.00029" height="5" transform="matrix(0.999815 -0.0192317 -0.0325135 -0.999471 152.352 389.969)" fill="#FED951"/>
<rect width="3.00029" height="5" transform="matrix(0.999815 -0.0192317 -0.0325135 -0.999471 104.381 391.597)" fill="#FED951"/>
<rect width="3.00029" height="5" transform="matrix(0.999815 -0.0192317 -0.0325135 -0.999471 98.3847 391.8)" fill="#FED951"/>
<rect width="3.00029" height="5" transform="matrix(0.999815 -0.0192317 -0.0325135 -0.999471 182.334 388.953)" fill="#FED951"/>
<rect width="3.00029" height="5" transform="matrix(0.999815 -0.0192317 -0.0325135 -0.999471 187.331 388.783)" fill="#FED951"/>
<rect width="3.00029" height="5" transform="matrix(0.999815 -0.0192317 -0.0325135 -0.999471 193.328 388.58)" fill="#FED951"/>
<rect width="3.00029" height="5" transform="matrix(0.999815 -0.0192317 -0.0325135 -0.999471 199.324 388.377)" fill="#FED951"/>
<rect width="3.00029" height="5" transform="matrix(0.999815 -0.0192317 -0.0325135 -0.999471 205.321 388.173)" fill="#FED951"/>
<rect width="3.00029" height="5" transform="matrix(0.999815 -0.0192317 -0.0325135 -0.999471 211.317 387.97)" fill="#FED951"/>
<rect width="3.00029" height="5" transform="matrix(0.999815 -0.0192317 -0.0325135 -0.999471 211.317 387.97)" fill="#FED951"/>
<rect width="3.00029" height="5" transform="matrix(0.999815 -0.0192317 -0.0325135 -0.999471 217.313 387.766)" fill="#FED951"/>
<rect width="3.00029" height="5" transform="matrix(0.999815 -0.0192317 -0.0325135 -0.999471 224.309 387.529)" fill="#FED951"/>
<rect width="3.00029" height="5" transform="matrix(0.999815 -0.0192317 -0.0325135 -0.999471 230.306 387.326)" fill="#FED951"/>
<rect width="3.00029" height="5" transform="matrix(0.999815 -0.0192317 -0.0325135 -0.999471 236.302 387.123)" fill="#FED951"/>
<rect width="3.00029" height="5" transform="matrix(0.999815 -0.0192317 -0.0325135 -0.999471 176.338 389.156)" fill="#FED951"/>
<rect width="3.00029" height="5" transform="matrix(0.999815 -0.0192317 -0.0325135 -0.999471 170.342 389.36)" fill="#FED951"/>
<rect width="3.00029" height="5" transform="matrix(0.999815 -0.0192317 -0.0325135 -0.999471 182.334 388.953)" fill="#FED951"/>
<rect width="3.00029" height="5" transform="matrix(0.999815 -0.0192317 -0.0325135 -0.999471 187.331 388.783)" fill="#FED951"/>
<rect width="3.00029" height="5" transform="matrix(0.999815 -0.0192317 -0.0325135 -0.999471 193.328 388.58)" fill="#FED951"/>
<rect width="3.00029" height="5" transform="matrix(0.999815 -0.0192317 -0.0325135 -0.999471 199.324 388.377)" fill="#FED951"/>
<rect width="3.00029" height="5" transform="matrix(0.999815 -0.0192317 -0.0325135 -0.999471 205.321 388.173)" fill="#FED951"/>
<rect width="3.00029" height="5" transform="matrix(0.999815 -0.0192317 -0.0325135 -0.999471 211.317 387.97)" fill="#FED951"/>
<rect width="3.00029" height="5" transform="matrix(0.999815 -0.0192317 -0.0325135 -0.999471 211.317 387.97)" fill="#FED951"/>
<rect width="3.00029" height="5" transform="matrix(0.999815 -0.0192317 -0.0325135 -0.999471 217.313 387.766)" fill="#FED951"/>
<rect width="3.00029" height="5" transform="matrix(0.999815 -0.0192317 -0.0325135 -0.999471 224.309 387.529)" fill="#FED951"/>
<rect width="3.00029" height="5" transform="matrix(0.999815 -0.0192317 -0.0325135 -0.999471 176.338 389.156)" fill="#FED951"/>
<rect width="3.00029" height="5" transform="matrix(0.999815 -0.0192317 -0.0325135 -0.999471 170.342 389.36)" fill="#FED951"/>
<rect width="3.00029" height="5" transform="matrix(0.999815 -0.0192317 -0.0325135 -0.999471 182.334 388.953)" fill="#FED951"/>
<rect width="3.00029" height="5" transform="matrix(0.999815 -0.0192317 -0.0325135 -0.999471 187.331 388.783)" fill="#FED951"/>
<rect width="3.00029" height="5" transform="matrix(0.999815 -0.0192317 -0.0325135 -0.999471 193.328 388.58)" fill="#FED951"/>
<rect width="3.00029" height="5" transform="matrix(0.999815 -0.0192317 -0.0325135 -0.999471 199.324 388.377)" fill="#FED951"/>
<rect width="3.00029" height="5" transform="matrix(0.999815 -0.0192317 -0.0325135 -0.999471 205.321 388.173)" fill="#FED951"/>
<rect width="3.00029" height="5" transform="matrix(0.999815 -0.0192317 -0.0325135 -0.999471 211.317 387.97)" fill="#FED951"/>
<rect width="3.00029" height="5" transform="matrix(0.999815 -0.0192317 -0.0325135 -0.999471 211.317 387.97)" fill="#FED951"/>
<rect width="3.00029" height="5" transform="matrix(0.999815 -0.0192317 -0.0325135 -0.999471 217.313 387.766)" fill="#FED951"/>
<rect width="3.00029" height="5" transform="matrix(0.999815 -0.0192317 -0.0325135 -0.999471 224.309 387.529)" fill="#FED951"/>
<rect width="3.00029" height="5" transform="matrix(0.999815 -0.0192317 -0.0325135 -0.999471 176.338 389.156)" fill="#FED951"/>
<rect width="3.00029" height="5" transform="matrix(0.999815 -0.0192317 -0.0325135 -0.999471 170.342 389.36)" fill="#FED951"/>
<rect width="3.00029" height="5" transform="matrix(0.999815 -0.0192317 -0.0325135 -0.999471 182.334 388.953)" fill="#FED951"/>
<rect width="3.00029" height="5" transform="matrix(0.999815 -0.0192317 -0.0325135 -0.999471 187.331 388.783)" fill="#FED951"/>
<rect width="3.00029" height="5" transform="matrix(0.999815 -0.0192317 -0.0325135 -0.999471 193.328 388.58)" fill="#FED951"/>
<rect width="3.00029" height="5" transform="matrix(0.999815 -0.0192317 -0.0325135 -0.999471 199.324 388.377)" fill="#FED951"/>
<rect width="3.00029" height="5" transform="matrix(0.999815 -0.0192317 -0.0325135 -0.999471 205.321 388.173)" fill="#FED951"/>
<rect width="3.00029" height="5" transform="matrix(0.999815 -0.0192317 -0.0325135 -0.999471 211.317 387.97)" fill="#FED951"/>
<rect width="3.00029" height="5" transform="matrix(0.999815 -0.0192317 -0.0325135 -0.999471 211.317 387.97)" fill="#FED951"/>
<rect width="3.00029" height="5" transform="matrix(0.999815 -0.0192317 -0.0325135 -0.999471 217.313 387.766)" fill="#FED951"/>
<rect width="3.00029" height="5" transform="matrix(0.999815 -0.0192317 -0.0325135 -0.999471 224.309 387.529)" fill="#FED951"/>
<rect width="3.00029" height="5" transform="matrix(0.999815 -0.0192317 -0.0325135 -0.999471 176.338 389.156)" fill="#FED951"/>
<rect width="3.00029" height="5" transform="matrix(0.999815 -0.0192317 -0.0325135 -0.999471 170.342 389.36)" fill="#FED951"/>
<rect width="3.00029" height="5" transform="matrix(0.999815 -0.0192317 -0.0325135 -0.999471 254.291 386.512)" fill="#FED951"/>
<rect width="3.00029" height="5" transform="matrix(0.999815 -0.0192317 -0.0325135 -0.999471 259.288 386.343)" fill="#FED951"/>
<rect width="3.00029" height="5" transform="matrix(0.999815 -0.0192317 -0.0325135 -0.999471 265.285 386.14)" fill="#FED951"/>
<rect width="3.00029" height="5" transform="matrix(0.999815 -0.0192317 -0.0325135 -0.999471 271.281 385.936)" fill="#FED951"/>
<rect width="3.00029" height="5" transform="matrix(0.999815 -0.0192317 -0.0325135 -0.999471 277.277 385.733)" fill="#FED951"/>
<rect width="3.00029" height="5" transform="matrix(0.999815 -0.0192317 -0.0325135 -0.999471 283.274 385.529)" fill="#FED951"/>
<rect width="3.00029" height="5" transform="matrix(0.999815 -0.0192317 -0.0325135 -0.999471 283.274 385.529)" fill="#FED951"/>
<rect width="3.00029" height="5" transform="matrix(0.999815 -0.0192317 -0.0325135 -0.999471 289.27 385.326)" fill="#FED951"/>
<rect width="3.00029" height="5" transform="matrix(0.999815 -0.0192317 -0.0325135 -0.999471 296.266 385.089)" fill="#FED951"/>
<rect width="3.00029" height="5" transform="matrix(0.999815 -0.0192317 -0.0325135 -0.999471 302.262 384.885)" fill="#FED951"/>
<rect width="3.00029" height="5" transform="matrix(0.999815 -0.0192317 -0.0325135 -0.999471 308.259 384.682)" fill="#FED951"/>
<rect width="3.00029" height="5" transform="matrix(0.999815 -0.0192317 -0.0325135 -0.999471 248.295 386.716)" fill="#FED951"/>
<rect width="3.00029" height="5" transform="matrix(0.999815 -0.0192317 -0.0325135 -0.999471 242.298 386.919)" fill="#FED951"/>
<rect width="3.00029" height="5" transform="matrix(0.999815 -0.0192317 -0.0325135 -0.999471 254.291 386.512)" fill="#FED951"/>
<rect width="3.00029" height="5" transform="matrix(0.999815 -0.0192317 -0.0325135 -0.999471 259.288 386.343)" fill="#FED951"/>
<rect width="3.00029" height="5" transform="matrix(0.999815 -0.0192317 -0.0325135 -0.999471 265.285 386.14)" fill="#FED951"/>
<rect width="3.00029" height="5" transform="matrix(0.999815 -0.0192317 -0.0325135 -0.999471 271.281 385.936)" fill="#FED951"/>
<rect width="3.00029" height="5" transform="matrix(0.999815 -0.0192317 -0.0325135 -0.999471 277.277 385.733)" fill="#FED951"/>
<rect width="3.00029" height="5" transform="matrix(0.999815 -0.0192317 -0.0325135 -0.999471 283.274 385.529)" fill="#FED951"/>
<rect width="3.00029" height="5" transform="matrix(0.999815 -0.0192317 -0.0325135 -0.999471 283.274 385.529)" fill="#FED951"/>
<rect width="3.00029" height="5" transform="matrix(0.999815 -0.0192317 -0.0325135 -0.999471 289.27 385.326)" fill="#FED951"/>
<rect width="3.00029" height="5" transform="matrix(0.999815 -0.0192317 -0.0325135 -0.999471 296.266 385.089)" fill="#FED951"/>
<rect width="3.00029" height="5" transform="matrix(0.999815 -0.0192317 -0.0325135 -0.999471 248.295 386.716)" fill="#FED951"/>
<rect width="3.00029" height="5" transform="matrix(0.999815 -0.0192317 -0.0325135 -0.999471 242.298 386.919)" fill="#FED951"/>
<rect width="3.00029" height="5" transform="matrix(0.999815 -0.0192317 -0.0325135 -0.999471 254.291 386.512)" fill="#FED951"/>
<rect width="3.00029" height="5" transform="matrix(0.999815 -0.0192317 -0.0325135 -0.999471 259.288 386.343)" fill="#FED951"/>
<rect width="3.00029" height="5" transform="matrix(0.999815 -0.0192317 -0.0325135 -0.999471 265.285 386.14)" fill="#FED951"/>
<rect width="3.00029" height="5" transform="matrix(0.999815 -0.0192317 -0.0325135 -0.999471 271.281 385.936)" fill="#FED951"/>
<rect width="3.00029" height="5" transform="matrix(0.999815 -0.0192317 -0.0325135 -0.999471 277.277 385.733)" fill="#FED951"/>
<rect width="3.00029" height="5" transform="matrix(0.999815 -0.0192317 -0.0325135 -0.999471 283.274 385.529)" fill="#FED951"/>
<rect width="3.00029" height="5" transform="matrix(0.999815 -0.0192317 -0.0325135 -0.999471 283.274 385.529)" fill="#FED951"/>
<rect width="3.00029" height="5" transform="matrix(0.999815 -0.0192317 -0.0325135 -0.999471 289.27 385.326)" fill="#FED951"/>
<rect width="3.00029" height="5" transform="matrix(0.999815 -0.0192317 -0.0325135 -0.999471 296.266 385.089)" fill="#FED951"/>
<rect width="3.00029" height="5" transform="matrix(0.999815 -0.0192317 -0.0325135 -0.999471 248.295 386.716)" fill="#FED951"/>
<rect width="3.00029" height="5" transform="matrix(0.999815 -0.0192317 -0.0325135 -0.999471 242.298 386.919)" fill="#FED951"/>
<rect width="3.00029" height="5" transform="matrix(0.999815 -0.0192317 -0.0325135 -0.999471 254.291 386.512)" fill="#FED951"/>
<rect width="3.00029" height="5" transform="matrix(0.999815 -0.0192317 -0.0325135 -0.999471 259.288 386.343)" fill="#FED951"/>
<rect width="3.00029" height="5" transform="matrix(0.999815 -0.0192317 -0.0325135 -0.999471 265.285 386.14)" fill="#FED951"/>
<rect width="3.00029" height="5" transform="matrix(0.999815 -0.0192317 -0.0325135 -0.999471 271.281 385.936)" fill="#FED951"/>
<rect width="3.00029" height="5" transform="matrix(0.999815 -0.0192317 -0.0325135 -0.999471 277.277 385.733)" fill="#FED951"/>
<rect width="3.00029" height="5" transform="matrix(0.999815 -0.0192317 -0.0325135 -0.999471 283.274 385.529)" fill="#FED951"/>
<rect width="3.00029" height="5" transform="matrix(0.999815 -0.0192317 -0.0325135 -0.999471 283.274 385.529)" fill="#FED951"/>
<rect width="3.00029" height="5" transform="matrix(0.999815 -0.0192317 -0.0325135 -0.999471 289.27 385.326)" fill="#FED951"/>
<rect width="3.00029" height="5" transform="matrix(0.999815 -0.0192317 -0.0325135 -0.999471 296.266 385.089)" fill="#FED951"/>
<rect width="3.00029" height="5" transform="matrix(0.999815 -0.0192317 -0.0325135 -0.999471 248.295 386.716)" fill="#FED951"/>
<rect width="3.00029" height="5" transform="matrix(0.999815 -0.0192317 -0.0325135 -0.999471 242.298 386.919)" fill="#FED951"/>
<rect width="3.00029" height="5" transform="matrix(0.999815 -0.0192317 -0.0325135 -0.999471 50.4135 393.427)" fill="#FED951"/>
<rect width="3.00029" height="5" transform="matrix(0.999815 -0.0192317 -0.0325135 -0.999471 55.4105 393.258)" fill="#FED951"/>
<rect width="3.00029" height="5" transform="matrix(0.999815 -0.0192317 -0.0325135 -0.999471 61.4069 393.054)" fill="#FED951"/>
<rect width="3.00029" height="5" transform="matrix(0.999815 -0.0192317 -0.0325135 -0.999471 67.4033 392.851)" fill="#FED951"/>
<rect width="3.00029" height="5" transform="matrix(0.999815 -0.0192317 -0.0325135 -0.999471 73.3997 392.647)" fill="#FED951"/>
<rect width="3.00029" height="5" transform="matrix(0.999815 -0.0192317 -0.0325135 -0.999471 79.3961 392.444)" fill="#FED951"/>
<rect width="3.00029" height="5" transform="matrix(0.999815 -0.0192317 -0.0325135 -0.999471 79.3961 392.444)" fill="#FED951"/>
<rect width="3.00029" height="5" transform="matrix(0.999815 -0.0192317 -0.0325135 -0.999471 85.3925 392.241)" fill="#FED951"/>
<rect width="3.00029" height="5" transform="matrix(0.999815 -0.0192317 -0.0325135 -0.999471 92.3883 392.003)" fill="#FED951"/>
<rect width="3.00029" height="5" transform="matrix(0.999815 -0.0192317 -0.0325135 -0.999471 44.4171 393.63)" fill="#FED951"/>
<rect width="3.00029" height="5" transform="matrix(0.999815 -0.0192317 -0.0325135 -0.999471 38.4207 393.834)" fill="#FED951"/>
<rect width="3.00029" height="5" transform="matrix(0.999815 -0.0192317 -0.0325135 -0.999471 50.4135 393.427)" fill="#FED951"/>
<rect width="3.00029" height="5" transform="matrix(0.999815 -0.0192317 -0.0325135 -0.999471 55.4105 393.258)" fill="#FED951"/>
<rect width="3.00029" height="5" transform="matrix(0.999815 -0.0192317 -0.0325135 -0.999471 61.4069 393.054)" fill="#FED951"/>
<rect width="3.00029" height="5" transform="matrix(0.999815 -0.0192317 -0.0325135 -0.999471 67.4033 392.851)" fill="#FED951"/>
<rect width="3.00029" height="5" transform="matrix(0.999815 -0.0192317 -0.0325135 -0.999471 73.3997 392.647)" fill="#FED951"/>
<rect width="3.00029" height="5" transform="matrix(0.999815 -0.0192317 -0.0325135 -0.999471 79.3961 392.444)" fill="#FED951"/>
<rect width="3.00029" height="5" transform="matrix(0.999815 -0.0192317 -0.0325135 -0.999471 79.3961 392.444)" fill="#FED951"/>
<rect width="3.00029" height="5" transform="matrix(0.999815 -0.0192317 -0.0325135 -0.999471 85.3925 392.241)" fill="#FED951"/>
<rect width="3.00029" height="5" transform="matrix(0.999815 -0.0192317 -0.0325135 -0.999471 92.3883 392.003)" fill="#FED951"/>
<rect width="3.00029" height="5" transform="matrix(0.999815 -0.0192317 -0.0325135 -0.999471 44.4171 393.63)" fill="#FED951"/>
<rect width="3.00029" height="5" transform="matrix(0.999815 -0.0192317 -0.0325135 -0.999471 38.4207 393.834)" fill="#FED951"/>
<rect width="3.00029" height="5" transform="matrix(0.999815 -0.0192317 -0.0325135 -0.999471 50.4135 393.427)" fill="#FED951"/>
<rect width="3.00029" height="5" transform="matrix(0.999815 -0.0192317 -0.0325135 -0.999471 55.4105 393.258)" fill="#FED951"/>
<rect width="3.00029" height="5" transform="matrix(0.999815 -0.0192317 -0.0325135 -0.999471 61.4069 393.054)" fill="#FED951"/>
<rect width="3.00029" height="5" transform="matrix(0.999815 -0.0192317 -0.0325135 -0.999471 67.4033 392.851)" fill="#FED951"/>
<rect width="3.00029" height="5" transform="matrix(0.999815 -0.0192317 -0.0325135 -0.999471 73.3997 392.647)" fill="#FED951"/>
<rect width="3.00029" height="5" transform="matrix(0.999815 -0.0192317 -0.0325135 -0.999471 79.3961 392.444)" fill="#FED951"/>
<rect width="3.00029" height="5" transform="matrix(0.999815 -0.0192317 -0.0325135 -0.999471 79.3961 392.444)" fill="#FED951"/>
<rect width="3.00029" height="5" transform="matrix(0.999815 -0.0192317 -0.0325135 -0.999471 85.3925 392.241)" fill="#FED951"/>
<rect width="3.00029" height="5" transform="matrix(0.999815 -0.0192317 -0.0325135 -0.999471 92.3883 392.003)" fill="#FED951"/>
<rect width="3.00029" height="5" transform="matrix(0.999815 -0.0192317 -0.0325135 -0.999471 44.4171 393.63)" fill="#FED951"/>
<rect width="3.00029" height="5" transform="matrix(0.999815 -0.0192317 -0.0325135 -0.999471 38.4207 393.834)" fill="#FED951"/>
<rect width="3.00029" height="5" transform="matrix(0.999815 -0.0192317 -0.0325135 -0.999471 50.4135 393.427)" fill="#FED951"/>
<rect width="3.00029" height="5" transform="matrix(0.999815 -0.0192317 -0.0325135 -0.999471 55.4105 393.258)" fill="#FED951"/>
<rect width="3.00029" height="5" transform="matrix(0.999815 -0.0192317 -0.0325135 -0.999471 61.4069 393.054)" fill="#FED951"/>
<rect width="3.00029" height="5" transform="matrix(0.999815 -0.0192317 -0.0325135 -0.999471 67.4033 392.851)" fill="#FED951"/>
<rect width="3.00029" height="5" transform="matrix(0.999815 -0.0192317 -0.0325135 -0.999471 73.3997 392.647)" fill="#FED951"/>
<rect width="3.00029" height="5" transform="matrix(0.999815 -0.0192317 -0.0325135 -0.999471 79.3961 392.444)" fill="#FED951"/>
<rect width="3.00029" height="5" transform="matrix(0.999815 -0.0192317 -0.0325135 -0.999471 79.3961 392.444)" fill="#FED951"/>
<rect width="3.00029" height="5" transform="matrix(0.999815 -0.0192317 -0.0325135 -0.999471 85.3925 392.241)" fill="#FED951"/>
<rect width="3.00029" height="5" transform="matrix(0.999815 -0.0192317 -0.0325135 -0.999471 92.3883 392.003)" fill="#FED951"/>
<rect width="3.00029" height="5" transform="matrix(0.999815 -0.0192317 -0.0325135 -0.999471 44.4171 393.63)" fill="#FED951"/>
<rect width="3.00029" height="5" transform="matrix(0.999815 -0.0192317 -0.0325135 -0.999471 38.4207 393.834)" fill="#FED951"/>
<path d="M249.916 385.624L297.251 383.293L312.227 687.334C312.87 700.406 302.796 711.524 289.725 712.168V712.168C276.653 712.812 265.535 702.737 264.891 689.666L249.916 385.624Z" fill="white" fill-opacity="0.39"/>
<path d="M155 391.332L202.335 389L217.311 693.042C217.955 706.113 207.88 717.231 194.809 717.875V717.875C181.737 718.519 170.619 708.444 169.975 695.373L155 391.332Z" fill="white" fill-opacity="0.39"/>
<path d="M57 392.332L104.335 390L119.311 694.042C119.955 707.113 109.88 718.231 96.8088 718.875V718.875C83.7375 719.519 72.6192 709.444 71.9754 696.373L57 392.332Z" fill="white" fill-opacity="0.39"/>
<circle cx="189.772" cy="194.302" r="33.401" stroke="#CFCFCF" stroke-width="3" stroke-dasharray="6 6"/>
<circle cx="189.772" cy="194.302" r="68.302" stroke="#CFCFCF" stroke-width="3" stroke-dasharray="6 6"/>
<circle cx="189.074" cy="193.604" r="103.203" stroke="#CFCFCF" stroke-width="3" stroke-dasharray="6 6"/>
<circle cx="189.074" cy="193.604" r="138.104" stroke="#CFCFCF" stroke-width="3" stroke-dasharray="6 6"/>
<circle cx="61.6856" cy="130.433" r="21.1856" fill="#A4E0F1" stroke="black" stroke-width="3"/>
<circle cx="96.5867" cy="241.418" r="10.7153" fill="#91C4A4" stroke="black" stroke-width="3"/>
<circle cx="245.614" cy="279.46" r="13.8564" fill="#FFE483" stroke="black" stroke-width="3"/>
<circle cx="322.745" cy="226.76" r="7.92327" fill="#FFFEFE" stroke="#635BAC" stroke-width="3"/>
<circle cx="133.233" cy="66.5642" r="4.78218" fill="#FFFEFE" stroke="#F8B5AF" stroke-width="3"/>
<circle cx="270.743" cy="81.9209" r="4.78218" fill="#A4E0F1" stroke="#A4E0F1" stroke-width="3"/>
<circle cx="163.946" cy="329.718" r="6.28218" fill="#FED951"/>
<circle cx="299.361" cy="277.366" r="5.08416" fill="#A4E0F1" stroke="#A4E0F1"/>
<circle cx="313.322" cy="137.762" r="13.8564" fill="#F8B5AF" stroke="black" stroke-width="3"/>
<circle cx="189.772" cy="194.302" r="33.401" fill="#F3B051" stroke="black" stroke-width="3"/>
<circle cx="230.606" cy="97.6262" r="10.7153" fill="#A4E0F1" stroke="black" stroke-width="3"/>
<rect x="72.9832" y="449.524" width="10.5024" height="10.5024" transform="rotate(-45 72.9832 449.524)" fill="#635BAC"/>
<rect x="47.6986" y="587.629" width="11.3282" height="11.3282" transform="rotate(-89.9664 47.6986 587.629)" fill="#F3B051"/>
<rect width="5.82694" height="5.82694" transform="matrix(0.000586778 -1 -1 -0.000586778 141.049 689.753)" fill="#F3B051"/>
<rect x="123.554" y="499.797" width="5.8334" height="5.8334" transform="rotate(-89.9664 123.554 499.797)" fill="#A4E0F1"/>
<rect x="235.954" y="629.708" width="8.42613" height="8.42613" transform="rotate(-136.148 235.954 629.708)" fill="#A4E0F1"/>
<rect x="282.392" y="692.996" width="6.47983" height="6.47983" transform="rotate(-89.9664 282.392 692.996)" fill="#A4E0F1"/>
<rect x="183.847" y="549.718" width="6.48096" height="6.48096" transform="rotate(-89.9664 183.847 549.718)" fill="#F99393"/>
<circle cx="324.857" cy="429.456" r="7.45573" fill="white"/>
<circle cx="324.857" cy="429.456" r="3.38897" fill="#A4E0F1"/>
<circle cx="302.814" cy="533.836" r="9.4007" fill="white"/>
<circle cx="302.814" cy="533.836" r="4.27305" fill="#F99393"/>
<circle cx="318.698" cy="623.629" r="13.6148" fill="white"/>
<circle cx="318.698" cy="623.629" r="6.18855" fill="#635BAC"/>
<circle cx="225.339" cy="468.679" r="4.53827" fill="white"/>
<circle cx="225.339" cy="468.679" r="2.06285" fill="#F3B051"/>
<path d="M117 342.5C117 346.09 114.09 349 110.5 349C106.91 349 104 346.09 104 342.5C104 338.91 106.91 336 110.5 336C114.09 336 117 338.91 117 342.5Z" fill="black"/>
<path d="M125 399.5C125 403.09 122.09 406 118.5 406C114.91 406 112 403.09 112 399.5C112 395.91 114.91 393 118.5 393C122.09 393 125 395.91 125 399.5Z" fill="black"/>
<rect x="107.283" y="341.07" width="5.5" height="61.5" rx="2.75" transform="rotate(-8.22042 107.283 341.07)" fill="white" stroke="black" stroke-width="0.5"/>
<path d="M229.039 352.133C228.333 354.766 224.95 356.148 221.483 355.219C218.015 354.29 215.776 351.402 216.482 348.768C217.187 346.135 220.57 344.753 224.038 345.682C227.505 346.611 229.744 349.499 229.039 352.133Z" fill="black"/>
<path d="M225.562 396.018C224.856 398.651 221.473 400.033 218.006 399.104C214.538 398.175 212.299 395.286 213.005 392.653C213.711 390.02 217.094 388.638 220.561 389.567C224.029 390.496 226.268 393.384 225.562 396.018Z" fill="black"/>
<rect x="0.228659" y="0.287302" width="5.47399" height="46.9383" rx="2.73699" transform="matrix(0.988391 0.15193 -0.0737559 0.997276 219.726 348.306)" fill="white" stroke="black" stroke-width="0.5"/>
</svg>
