<svg width="339" height="398" viewBox="0 0 339 398" fill="none" xmlns="http://www.w3.org/2000/svg">
<path d="M305.926 251.321L288.18 215.432L281.876 111.521C276.433 46.8989 229.121 0 169.376 0C109.412 0 62.0944 46.9183 56.8586 111.788L50.5016 216.58L32.9038 251.313C14.2087 254.763 0 271.146 0 290.81C0 312.975 18.0404 331.005 40.2185 331.005H118.959V347.613C118.959 375.396 141.573 398 169.375 398C197.177 398 219.792 375.396 219.792 347.613V331.005L298.529 331.008C320.707 331.008 338.747 312.978 338.747 290.813C338.747 271.172 324.569 254.804 305.919 251.326L305.926 251.321ZM71.7803 224.711C72.4789 223.33 72.8867 221.826 72.9815 220.281L79.4712 113.378C83.7103 60.8052 121.523 22.6507 169.378 22.6507C217.05 22.6507 254.866 60.827 259.277 113.16L265.697 219.093C265.789 220.6 266.177 222.072 266.848 223.424L280.292 250.616H58.6563L71.7803 224.711ZM197.14 347.611C197.14 362.905 184.685 375.353 169.382 375.353C154.079 375.353 141.624 362.905 141.624 347.611V331.003H197.14V347.611ZM298.538 308.358H40.2279C30.5421 308.358 22.6682 300.485 22.6682 290.808C22.6682 281.128 30.5456 273.259 40.2279 273.259H298.538C308.224 273.259 316.098 281.132 316.098 290.808C316.098 300.485 308.22 308.358 298.538 308.358Z" fill="black"/>
</svg>
