<svg width="423" height="403" viewBox="0 0 423 403" fill="none" xmlns="http://www.w3.org/2000/svg">
<rect x="37.5786" y="41.0596" width="15.6089" height="15.6089" transform="rotate(-45 37.5786 41.0596)" fill="#635BAC"/>
<rect y="246.315" width="16.8363" height="16.8363" transform="rotate(-89.9664 0 246.315)" fill="#F3B051"/>
<rect width="8.66012" height="8.66012" transform="matrix(0.000586778 -1 -1 -0.000586778 138.74 398.093)" fill="#F3B051"/>
<rect x="112.738" y="115.776" width="8.66972" height="8.66972" transform="rotate(-89.9664 112.738 115.776)" fill="#A4E0F1"/>
<rect x="279.789" y="308.852" width="12.5231" height="12.5231" transform="rotate(-136.148 279.789 308.852)" fill="#A4E0F1"/>
<rect x="348.806" y="402.913" width="9.63047" height="9.63047" transform="rotate(-89.9664 348.806 402.913)" fill="#A4E0F1"/>
<rect x="202.346" y="189.969" width="9.63214" height="9.63214" transform="rotate(-89.9664 202.346 189.969)" fill="#F99393"/>
<circle cx="411.919" cy="11.2335" r="11.0809" fill="white"/>
<circle cx="411.919" cy="11.2335" r="5.03676" fill="#A4E0F1"/>
<circle cx="379.158" cy="166.365" r="13.9715" fill="white"/>
<circle cx="379.158" cy="166.366" r="6.35069" fill="#F99393"/>
<circle cx="402.765" cy="299.818" r="20.2346" fill="white"/>
<circle cx="402.765" cy="299.818" r="9.19756" fill="#635BAC"/>
<circle cx="264.014" cy="69.5284" r="6.74487" fill="white"/>
<circle cx="264.014" cy="69.5284" r="3.06585" fill="#F3B051"/>
</svg>
