<svg width="733" height="184" viewBox="0 0 733 184" fill="none" xmlns="http://www.w3.org/2000/svg">
<path d="M184.459 91.776C184.459 142.464 143.371 183.552 92.6828 183.552C41.9948 183.552 0.901489 142.464 0.901489 91.776C0.901489 41.088 41.9948 0 92.6828 0C143.371 0 184.459 41.088 184.459 91.776Z" fill="black"/>
<path d="M458.232 91.776C458.232 142.464 417.144 183.552 366.456 183.552C315.768 183.552 274.68 142.464 274.68 91.776C274.68 41.088 315.768 0 366.456 0C417.144 0 458.232 41.088 458.232 91.776Z" fill="black"/>
<path d="M732.019 91.776C732.019 142.464 690.926 183.552 640.238 183.552C589.55 183.552 548.462 142.464 548.462 91.776C548.462 41.088 589.55 0 640.238 0C690.926 0 732.019 41.088 732.019 91.776Z" fill="black"/>
</svg>
