<svg width="250" height="399" viewBox="0 0 250 399" fill="none" xmlns="http://www.w3.org/2000/svg">
<path d="M123.876 0.0730211C120.701 0.486505 117.965 2.51191 116.64 5.42574L0.864869 255.501V255.504C-0.469279 258.369 -0.249638 261.719 1.45279 264.387C3.15196 267.056 6.09481 268.671 9.2573 268.671H115.771V389.077C115.842 393.39 118.882 397.082 123.1 397.984C127.319 398.882 131.603 396.75 133.428 392.841L249.203 142.766V142.763C250.469 139.91 250.214 136.609 248.525 133.983C246.832 131.36 243.931 129.764 240.808 129.738H134.294V9.33159V9.33482C134.317 6.6633 133.183 4.11459 131.186 2.33793C129.19 0.564495 126.525 -0.262893 123.876 0.0730211ZM115.771 51.3029V139.003C115.771 144.117 119.919 148.264 125.033 148.264H226.336L134.295 346.96V259.4C134.295 254.287 130.15 250.139 125.033 250.139H23.7299L115.771 51.3029Z" fill="black"/>
</svg>
