<svg width="389" height="389" viewBox="0 0 389 389" fill="none" xmlns="http://www.w3.org/2000/svg">
<path d="M19.9064 160.103C40.1136 174.867 64.9008 181.986 89.8626 180.198C114.824 181.985 139.608 174.867 159.816 160.103C186.736 133.374 186.736 46.3552 159.816 20.1933C132.896 -5.96782 46.0683 -6.72667 19.9064 20.1933C-6.25468 47.1132 -7.01354 133.372 19.9064 160.103ZM40.0023 40.294C54.9 31.0391 72.387 26.8499 89.8618 28.3514C107.333 26.8502 124.824 31.0396 139.721 40.294C155.648 56.0294 155.648 124.28 139.721 140.01C123.795 155.745 55.9302 155.936 40.0055 140.01C24.0793 124.084 23.5114 56.0237 40.0055 40.294H40.0023Z" fill="black"/>
<path d="M19.9064 368.634C40.1136 383.395 64.9008 390.517 89.8626 388.73C114.824 390.517 139.608 383.395 159.816 368.634C186.736 341.905 186.736 254.886 159.816 228.725C132.896 202.563 46.0683 201.805 19.9064 228.725C-6.25468 255.645 -7.01354 341.903 19.9064 368.634ZM40.0023 248.825V248.822C54.9 239.57 72.387 235.381 89.8618 236.88C107.333 235.381 124.824 239.571 139.721 248.822C155.648 264.557 155.648 332.808 139.721 348.538C123.795 364.273 55.9302 364.464 40.0055 348.538C24.0793 332.615 23.5114 264.552 40.0055 248.822L40.0023 248.825Z" fill="black"/>
<path d="M368.347 20.19C341.618 -6.72998 254.6 -6.72998 228.438 20.19C202.277 47.1099 201.518 133.937 228.438 160.099C248.645 174.864 273.429 181.983 298.391 180.195C323.352 181.982 348.139 174.863 368.347 160.099C395.267 133.37 395.267 46.9206 368.347 20.19ZM348.251 140.007C332.325 155.933 264.46 155.933 248.535 140.007C232.609 124.08 232.609 56.0204 248.535 40.2907C263.433 31.0358 280.923 26.8466 298.395 28.3481C315.87 26.8469 333.357 31.0362 348.254 40.2907C364.748 56.0261 364.748 124.277 348.254 140.007H348.251Z" fill="black"/>
<path d="M228.438 228.725C201.518 255.454 201.518 342.472 228.438 368.634C248.645 383.395 273.429 390.517 298.391 388.73C323.353 390.516 348.139 383.395 368.347 368.634C395.267 341.905 395.267 254.886 368.347 228.725C341.427 202.563 255.168 201.805 228.438 228.725ZM348.246 348.533C332.32 364.459 264.455 364.459 248.53 348.533C232.604 332.607 232.604 264.547 248.53 248.817C263.428 239.565 280.918 235.376 298.39 236.874C315.865 235.376 333.352 239.566 348.249 248.817C364.744 264.552 364.744 332.803 348.249 348.533H348.246Z" fill="black"/>
</svg>
