<svg width="200" height="200" viewBox="0 0 200 200" fill="none" xmlns="http://www.w3.org/2000/svg">
<g clip-path="url(#clip0_123_2)">
<path d="M100 197.754C153.988 197.754 197.754 153.988 197.754 100C197.754 46.0121 153.988 2.24622 100 2.24622C46.012 2.24622 2.24609 46.0121 2.24609 100C2.24609 153.988 46.012 197.754 100 197.754Z" fill="#F99393"/>
<path fill-rule="evenodd" clip-rule="evenodd" d="M100 8.18708e-05C123.136 -0.000394856 145.557 8.02128 163.441 22.6983C181.326 37.3753 193.568 57.7996 198.082 80.491C202.596 103.182 199.102 126.737 188.197 147.141C177.291 167.546 159.647 183.537 138.272 192.391C116.897 201.245 93.1138 202.414 70.9739 195.698C48.834 188.982 29.7077 174.797 16.8539 155.561C4.00005 136.324 -1.78598 113.225 0.481652 90.2005C2.74928 67.1759 12.9303 45.6498 29.2899 29.2901C38.5654 19.9904 49.5872 12.6153 61.722 7.58877C73.8568 2.56221 86.8653 -0.0167509 100 8.18708e-05ZM167.535 32.4657C151.91 16.841 131.351 7.11735 109.361 4.95141C87.3713 2.78546 65.3105 8.31127 46.938 20.5873C28.5654 32.8633 15.0178 51.1301 8.60341 72.275C2.18906 93.4199 3.30488 116.135 11.7608 136.549C20.2166 156.964 35.4893 173.815 54.9766 184.231C74.4639 194.647 96.96 197.984 118.632 193.674C140.304 189.363 159.811 177.671 173.828 160.59C187.846 143.509 195.508 122.097 195.508 100C195.524 87.4555 193.061 75.0313 188.261 63.4414C183.46 51.8516 176.416 41.3247 167.535 32.4657Z" fill="#231F20"/>
<path fill-rule="evenodd" clip-rule="evenodd" d="M99.9909 37.7403C119.993 37.7403 150.672 45.0541 149.894 75.3564C149.717 89.5423 147.733 103.648 143.991 117.332H54.3913C51.8879 103.487 50.8042 89.422 51.1571 75.3564C52.0139 45.0465 79.9918 37.7403 99.9909 37.7403Z" fill="#231F20"/>
<path fill-rule="evenodd" clip-rule="evenodd" d="M99.9909 35.4941C100.496 35.4941 101.223 35.5062 102.182 35.5305C112.347 35.7914 124.69 37.9065 134.536 43.6313C140.033 46.5832 144.596 51.0128 147.709 56.4201C150.822 61.8274 152.362 67.9973 152.155 74.2334C152.155 74.3989 152.147 74.8011 152.133 75.4091C151.97 82.5842 151.424 89.7454 150.495 96.862C149.568 103.991 148.113 111.041 146.141 117.955L145.672 119.579H52.5055L52.1801 117.718C50.8891 110.323 49.9748 103.176 49.4317 96.142C48.8939 89.2069 48.723 82.2483 48.9198 75.2953C49.3071 61.6015 54.9476 52.3108 62.9422 46.153C73.5108 38.0127 88.129 35.4941 99.9909 35.4941ZM102.077 40.0049C101.589 39.9928 100.886 39.9865 99.9909 39.9865C88.8996 39.9865 75.3076 42.281 65.6796 49.6979C58.6788 55.0905 53.7372 63.2804 53.3941 75.4174C53.2047 82.2186 53.3756 89.0251 53.9059 95.8082C54.3904 102.086 55.183 108.48 56.2851 115.086H142.299C143.971 108.91 145.226 102.628 146.054 96.2826C146.963 89.3232 147.498 82.3202 147.658 75.3036C147.661 75.1565 147.663 74.8095 147.663 74.2334C147.846 68.7888 146.503 63.4015 143.787 58.6795C141.071 53.9575 137.088 50.0887 132.29 47.5098C123.177 42.2109 111.626 40.2499 102.077 40.0049Z" fill="#231F20"/>
<path fill-rule="evenodd" clip-rule="evenodd" d="M143.934 187.263C130.301 194.112 115.256 197.679 100 197.679C84.7438 197.679 69.6989 194.112 56.0664 187.263C55.9505 185.959 55.8867 184.64 55.8867 183.306C55.8867 177.513 57.0277 171.777 59.2446 166.425C61.4615 161.073 64.7108 156.21 68.807 152.113C72.9032 148.017 77.7662 144.768 83.1181 142.551C88.4701 140.334 94.2063 139.193 99.9993 139.193C105.792 139.193 111.528 140.334 116.88 142.551C122.232 144.768 127.095 148.017 131.192 152.113C135.288 156.21 138.537 161.073 140.754 166.425C142.971 171.777 144.112 177.513 144.112 183.306C144.113 184.64 144.05 185.959 143.934 187.263Z" fill="#94D4CE"/>
<path fill-rule="evenodd" clip-rule="evenodd" d="M144.943 189.264C131.003 196.288 115.61 199.947 100 199.947C84.3901 199.947 68.9974 196.288 55.0572 189.264C54.6953 189.081 54.3896 188.804 54.1729 188.461C53.9562 188.119 53.8365 187.724 53.8266 187.319C53.7687 186.647 53.724 186.003 53.6962 185.393C53.6604 184.607 53.6414 183.905 53.6414 183.306C53.6684 171.028 58.5645 159.263 67.2555 150.591C75.9465 141.919 87.7226 137.049 100 137.049C112.277 137.049 124.054 141.919 132.745 150.591C141.436 159.263 146.332 171.028 146.359 183.306C146.359 183.905 146.34 184.606 146.304 185.393C146.274 186.044 146.225 186.735 146.162 187.456C146.129 187.836 146 188.201 145.786 188.517C145.572 188.832 145.281 189.088 144.941 189.26L144.943 189.264ZM122.091 192.862C128.9 191.249 135.508 188.888 141.797 185.821L141.829 185.199C141.853 184.668 141.866 184.04 141.866 183.305C141.879 177.799 140.806 172.344 138.707 167.254C136.609 162.163 133.527 157.536 129.638 153.638C125.749 149.74 121.13 146.648 116.044 144.538C110.958 142.428 105.506 141.342 100 141.342C94.4939 141.342 89.0418 142.428 83.956 144.538C78.8702 146.648 74.2505 149.74 70.3616 153.638C66.4727 157.536 63.3908 162.163 61.2926 167.254C59.1943 172.344 58.1208 177.799 58.1335 183.305C58.1335 184.04 58.147 184.668 58.1704 185.199L58.2029 185.821C78.0544 195.45 100.619 197.937 122.091 192.862Z" fill="#231F20"/>
<path fill-rule="evenodd" clip-rule="evenodd" d="M99.9998 124.264C114.122 124.264 125.569 137.84 125.569 154.589C125.569 171.339 114.122 184.915 99.9998 184.915C85.878 184.915 74.4316 171.338 74.4316 154.591C74.4316 137.843 85.8783 124.264 99.9998 124.264ZM99.9998 131.896C90.2197 131.896 82.2914 141.879 82.2914 154.193C82.2914 166.507 90.2209 176.489 99.9998 176.489C109.779 176.489 117.708 166.506 117.708 154.192C117.708 141.878 109.78 131.896 99.9998 131.896Z" fill="#FFCB05"/>
<path fill-rule="evenodd" clip-rule="evenodd" d="M100 122.017C103.808 122.075 107.556 122.973 110.977 124.646C114.398 126.32 117.407 128.727 119.79 131.698C124.985 138.197 127.815 146.269 127.815 154.589C127.815 162.909 124.985 170.982 119.79 177.481C117.447 180.495 114.445 182.934 111.016 184.611C107.586 186.289 103.818 187.161 100 187.161C96.1819 187.161 92.4142 186.289 88.9844 184.611C85.5546 182.934 82.5533 180.495 80.2095 177.481C75.015 170.982 72.1853 162.909 72.1853 154.589C72.1853 146.269 75.015 138.197 80.2095 131.698C82.5929 128.727 85.6023 126.32 89.0232 124.646C92.4441 122.973 96.1922 122.075 100 122.017ZM116.369 134.593C114.445 132.079 111.967 130.043 109.128 128.641C106.29 127.239 103.166 126.51 100 126.51C96.8341 126.51 93.7106 127.239 90.8719 128.641C88.0332 130.043 85.5556 132.079 83.6311 134.593C79.1276 140.286 76.6775 147.331 76.6775 154.589C76.6775 161.848 79.1276 168.893 83.6311 174.585C85.5556 177.099 88.0332 179.136 90.8719 180.538C93.7106 181.94 96.8341 182.669 100 182.669C103.166 182.669 106.29 181.94 109.128 180.538C111.967 179.136 114.445 177.099 116.369 174.585C120.873 168.893 123.323 161.848 123.323 154.589C123.323 147.331 120.873 140.286 116.369 134.593ZM100 129.65C97.2151 129.711 94.481 130.408 92.0066 131.687C89.5323 132.966 87.3832 134.795 85.7236 137.032C82.0364 141.994 80.0453 148.011 80.0453 154.193C80.0453 160.375 82.0364 166.392 85.7236 171.354C87.3402 173.635 89.4801 175.496 91.9641 176.781C94.448 178.065 97.2036 178.735 100 178.735C102.796 178.735 105.552 178.065 108.036 176.781C110.52 175.496 112.66 173.635 114.276 171.354C117.964 166.392 119.955 160.375 119.955 154.193C119.955 148.011 117.964 141.994 114.276 137.032C112.617 134.795 110.468 132.966 107.993 131.687C105.519 130.407 102.785 129.711 100 129.65ZM110.767 139.822C109.569 138.071 107.963 136.639 106.087 135.649C104.211 134.659 102.121 134.142 100 134.142C97.8789 134.142 95.7896 134.659 93.9134 135.649C92.0372 136.639 90.4307 138.071 89.233 139.822C86.182 143.992 84.5375 149.025 84.5375 154.193C84.5375 159.36 86.182 164.393 89.233 168.564C90.4307 170.315 92.0372 171.747 93.9134 172.737C95.7896 173.726 97.8789 174.244 100 174.244C102.121 174.244 104.211 173.726 106.087 172.737C107.963 171.747 109.569 170.315 110.767 168.564C113.818 164.393 115.462 159.36 115.462 154.193C115.462 149.025 113.818 143.992 110.767 139.822Z" fill="#231F20"/>
<path d="M106.744 165.595C115.787 161.87 120.099 151.519 116.374 142.476C112.649 133.433 102.299 129.122 93.2556 132.847C84.2125 136.571 79.9011 146.922 83.6259 155.965C87.3507 165.008 97.7011 169.319 106.744 165.595Z" fill="#8B7459"/>
<path fill-rule="evenodd" clip-rule="evenodd" d="M99.9998 129.266C104.617 129.265 109.091 130.866 112.661 133.795C116.23 136.723 118.674 140.799 119.575 145.328C120.476 149.856 119.779 154.557 117.603 158.629C115.426 162.701 111.905 165.893 107.64 167.66C103.374 169.427 98.6278 169.66 94.2094 168.32C89.791 166.98 85.974 164.149 83.4088 160.31C80.8435 156.471 79.6888 151.862 80.1413 147.267C80.5938 142.672 82.6255 138.376 85.8904 135.111C87.7411 133.255 89.9404 131.783 92.3618 130.78C94.7831 129.777 97.3789 129.263 99.9998 129.266ZM110.934 138.287C108.404 135.757 105.076 134.182 101.515 133.831C97.9545 133.48 94.3824 134.374 91.4075 136.362C88.4325 138.349 86.2387 141.307 85.1999 144.731C84.1612 148.154 84.3416 151.832 85.7106 155.138C87.0797 158.443 89.5525 161.172 92.7077 162.858C95.863 164.545 99.5055 165.086 103.015 164.388C106.524 163.69 109.682 161.797 111.952 159.031C114.222 156.265 115.462 152.798 115.462 149.22C115.465 147.19 115.066 145.178 114.289 143.302C113.512 141.425 112.372 139.721 110.934 138.287Z" fill="#231F20"/>
<path fill-rule="evenodd" clip-rule="evenodd" d="M142.706 106.362C144.897 106.362 147.038 107.012 148.859 108.229C150.681 109.446 152.1 111.175 152.939 113.199C153.777 115.223 153.996 117.45 153.569 119.598C153.141 121.747 152.087 123.72 150.538 125.269C148.989 126.818 147.015 127.873 144.867 128.3C142.719 128.727 140.492 128.508 138.468 127.67C136.444 126.831 134.714 125.412 133.497 123.591C132.28 121.769 131.631 119.628 131.631 117.437C131.631 115.983 131.917 114.543 132.474 113.199C133.03 111.855 133.846 110.634 134.875 109.606C135.903 108.577 137.124 107.762 138.468 107.205C139.812 106.648 141.252 106.362 142.706 106.362Z" fill="#8B7459"/>
<path fill-rule="evenodd" clip-rule="evenodd" d="M142.706 104.116C145.789 104.116 148.776 105.184 151.158 107.14C153.541 109.095 155.172 111.816 155.774 114.839C156.375 117.862 155.91 121 154.457 123.718C153.004 126.437 150.653 128.567 147.806 129.747C144.958 130.926 141.79 131.082 138.84 130.187C135.891 129.293 133.343 127.403 131.63 124.84C129.918 122.277 129.147 119.2 129.449 116.133C129.751 113.065 131.107 110.198 133.287 108.018C134.523 106.779 135.991 105.797 137.607 105.127C139.224 104.458 140.957 104.114 142.706 104.116ZM148.95 111.194C147.506 109.748 145.605 108.849 143.571 108.648C141.537 108.447 139.497 108.958 137.798 110.093C136.099 111.228 134.846 112.917 134.252 114.872C133.659 116.828 133.761 118.928 134.543 120.816C135.325 122.704 136.737 124.263 138.539 125.226C140.341 126.19 142.422 126.498 144.426 126.1C146.43 125.701 148.234 124.62 149.531 123.041C150.827 121.461 151.536 119.481 151.536 117.437C151.537 116.278 151.309 115.129 150.866 114.058C150.422 112.986 149.771 112.013 148.95 111.194Z" fill="#231F20"/>
<path fill-rule="evenodd" clip-rule="evenodd" d="M57.2949 106.362C59.4854 106.362 61.6267 107.012 63.4481 108.228C65.2694 109.445 66.689 111.175 67.5273 113.199C68.3656 115.223 68.585 117.45 68.1577 119.598C67.7304 121.746 66.6755 123.72 65.1266 125.269C63.5777 126.818 61.6043 127.873 59.4559 128.3C57.3075 128.727 55.0806 128.508 53.0568 127.67C51.033 126.831 49.3033 125.412 48.0863 123.591C46.8693 121.769 46.2197 119.628 46.2197 117.437C46.2197 115.983 46.5061 114.543 47.0627 113.199C47.6193 111.855 48.4351 110.634 49.4635 109.606C50.4919 108.578 51.7128 107.762 53.0565 107.205C54.4003 106.649 55.8404 106.362 57.2949 106.362Z" fill="#8B7459"/>
<path fill-rule="evenodd" clip-rule="evenodd" d="M57.2948 104.116C60.377 104.116 63.3641 105.184 65.7468 107.14C68.1296 109.095 69.7607 111.816 70.3622 114.839C70.9637 117.862 70.4984 121 69.0455 123.718C67.5927 126.437 65.2422 128.567 62.3946 129.747C59.547 130.926 56.3784 131.082 53.4289 130.187C50.4793 129.293 47.9312 127.403 46.2187 124.84C44.5063 122.277 43.7354 119.2 44.0376 116.133C44.3397 113.065 45.6961 110.198 47.8756 108.018C49.1112 106.779 50.5794 105.797 52.1959 105.127C53.8123 104.458 55.5451 104.114 57.2948 104.116ZM63.5386 111.194C62.094 109.748 60.193 108.849 58.1594 108.648C56.1259 108.447 54.0856 108.958 52.3864 110.093C50.6871 111.228 49.434 112.917 48.8405 114.872C48.247 116.828 48.3499 118.928 49.1316 120.816C49.9134 122.704 51.3256 124.263 53.1277 125.226C54.9297 126.19 57.0101 126.498 59.0143 126.1C61.0185 125.701 62.8225 124.62 64.1189 123.041C65.4153 121.461 66.1239 119.481 66.1239 117.437C66.1255 116.278 65.8979 115.129 65.4542 114.058C65.0105 112.986 64.3595 112.013 63.5386 111.194Z" fill="#231F20"/>
<path d="M99.9999 149.641C124.188 149.641 143.797 130.032 143.797 105.844C143.797 81.6556 124.188 62.0471 99.9999 62.0471C75.8116 62.0471 56.2031 81.6556 56.2031 105.844C56.2031 130.032 75.8116 149.641 99.9999 149.641Z" fill="#8B7459"/>
<path fill-rule="evenodd" clip-rule="evenodd" d="M99.9998 59.8009C110.653 59.8006 120.976 63.4942 129.211 70.2521C137.446 77.0101 143.083 86.4144 145.161 96.8626C147.24 107.311 145.631 118.156 140.609 127.552C135.588 136.947 127.464 144.31 117.622 148.386C107.78 152.463 96.8287 153.001 86.6345 149.909C76.4403 146.816 67.6338 140.285 61.7155 131.427C55.7972 122.569 53.1333 111.933 54.1777 101.332C55.2221 90.7302 59.9103 80.8188 67.4433 73.2862C71.714 69.0046 76.7888 65.6091 82.3759 63.2949C87.963 60.9806 93.9524 59.7932 99.9998 59.8009ZM129.381 76.4629C122.583 69.6656 113.639 65.4354 104.073 64.4931C94.5062 63.5508 84.9088 65.9548 76.9159 71.2955C68.923 76.6361 63.0292 84.5829 60.2387 93.7819C57.4481 102.981 57.9336 112.863 61.6122 121.744C65.2909 130.625 71.9352 137.956 80.413 142.488C88.8908 147.019 98.6777 148.471 108.106 146.596C117.534 144.721 126.02 139.634 132.119 132.203C138.217 124.772 141.551 115.457 141.551 105.844C141.558 100.386 140.486 94.9812 138.398 89.939C136.309 84.8968 133.245 80.3171 129.381 76.4629Z" fill="#231F20"/>
<path fill-rule="evenodd" clip-rule="evenodd" d="M81.2594 111.752C82.3839 111.752 83.4831 112.085 84.4181 112.71C85.3531 113.335 86.0818 114.223 86.5121 115.262C86.9424 116.301 87.055 117.444 86.8357 118.547C86.6163 119.649 86.0748 120.663 85.2797 121.458C84.4845 122.253 83.4715 122.794 82.3686 123.014C81.2657 123.233 80.1226 123.12 79.0837 122.69C78.0448 122.26 77.1569 121.531 76.5321 120.596C75.9074 119.661 75.574 118.562 75.574 117.437C75.5739 116.691 75.721 115.951 76.0067 115.262C76.2924 114.572 76.7112 113.945 77.2391 113.417C77.7671 112.889 78.3939 112.47 79.0837 112.185C79.7735 111.899 80.5128 111.752 81.2594 111.752Z" fill="#231F20"/>
<path fill-rule="evenodd" clip-rule="evenodd" d="M118.739 111.752C119.864 111.752 120.963 112.085 121.898 112.71C122.833 113.335 123.562 114.223 123.992 115.262C124.422 116.3 124.535 117.444 124.316 118.546C124.096 119.649 123.555 120.662 122.76 121.458C121.965 122.253 120.952 122.794 119.849 123.014C118.746 123.233 117.603 123.12 116.564 122.69C115.525 122.26 114.637 121.531 114.012 120.596C113.387 119.661 113.054 118.562 113.054 117.437C113.054 116.691 113.201 115.951 113.487 115.262C113.772 114.572 114.191 113.945 114.719 113.417C115.247 112.889 115.874 112.47 116.563 112.185C117.253 111.899 117.993 111.752 118.739 111.752Z" fill="#231F20"/>
<path fill-rule="evenodd" clip-rule="evenodd" d="M146.745 86.3228L132.638 59.5813L100 55.7914L67.3619 59.5813L53.2549 86.3228C53.2122 92.9276 52.3152 103.557 53.9253 109.597C59.8996 132.008 69.0619 154.771 100.05 154.787C130.866 154.803 139.755 131.576 145.704 109.205C147.522 102.369 146.51 93.8309 146.745 86.3228ZM109.783 143.81C104.881 143.461 103.198 138.428 100.001 138.647C96.804 138.428 95.1213 143.461 90.219 143.81C65.2583 145.589 48.7823 99.0283 64.5535 81.2307C66.5615 78.936 69.0881 77.1534 71.9233 76.0312C74.7586 74.909 77.8207 74.4794 80.8553 74.7783C87.7439 75.4296 94.8668 79.2814 100 79.1669C105.082 79.2792 112.111 75.4736 118.934 74.7987C121.976 74.4798 125.05 74.8867 127.904 75.9861C130.758 77.0855 133.31 78.846 135.352 81.1231C151.289 98.7631 134.808 145.593 109.783 143.81Z" fill="#231F20"/>
<path fill-rule="evenodd" clip-rule="evenodd" d="M144.491 86.8551L131.207 61.6745L99.9995 58.0489L68.7926 61.6745L55.4869 86.8969C55.4685 88.3671 55.4171 89.944 55.3641 91.6056C55.1712 97.587 54.9421 104.712 56.0925 109.028C59.0136 119.985 62.6972 131.008 69.3451 139.179C75.8537 147.178 85.3472 152.543 100.05 152.55C114.648 152.557 124.029 147.094 130.447 138.996C134.348 133.816 137.396 128.046 139.476 121.904C139.279 122.383 139.075 122.858 138.865 123.329C136.333 129.274 132.6 134.631 127.9 139.066C125.498 141.423 122.635 143.26 119.49 144.46C116.346 145.661 112.987 146.201 109.625 146.045C106.882 145.74 104.341 144.454 102.472 142.423C101.537 141.587 100.707 140.844 100.149 140.882H99.8513C99.2943 140.844 98.4639 141.586 97.528 142.423C95.6591 144.454 93.1189 145.74 90.376 146.045C87.0684 146.203 83.7634 145.685 80.6627 144.523C77.5619 143.361 74.7303 141.579 72.3408 139.287C67.5671 134.864 63.7738 129.489 61.2057 123.509C58.4445 117.36 56.7662 110.779 56.2447 104.059C55.5788 94.7057 57.5303 85.7786 62.8762 79.7457C65.1149 77.1833 67.9337 75.1932 71.0977 73.9413C74.2616 72.6894 77.6789 72.212 81.0648 72.5489C84.5949 73.0073 88.0672 73.834 91.4251 75.0156C94.1621 76.0591 97.035 76.7036 99.9555 76.9294L100 76.9205L100.045 76.9294C102.946 76.7034 105.798 76.0604 108.515 75.0204C111.822 73.8551 115.24 73.0338 118.715 72.5693C122.11 72.2245 125.539 72.6809 128.726 73.9019L128.725 73.905C131.898 75.1321 134.738 77.0906 137.012 79.6215C142.446 85.636 144.431 94.6154 143.76 104.035C143.55 106.897 143.118 109.738 142.469 112.533C142.838 111.234 143.195 109.934 143.539 108.634C144.535 103.634 144.868 98.524 144.527 93.4369C144.486 91.21 144.445 88.9969 144.494 86.8546L144.491 86.8551ZM134.621 58.5374L148.729 85.2798L148.983 86.394C148.912 88.6445 148.956 90.9982 149 93.3684C149.365 98.8636 148.986 104.383 147.872 109.776C144.834 121.202 141.028 132.867 133.958 141.787C126.742 150.891 116.264 157.033 100.051 157.026C83.7672 157.017 73.1826 150.991 65.8712 142.004C58.6982 133.188 54.8109 121.62 51.7582 110.167C50.4461 105.244 50.6873 97.7526 50.8897 91.4638C50.9503 89.5716 51.0082 87.7878 51.0177 86.3138L51.2717 85.2786L65.3787 58.5374L65.9321 57.4901L67.1072 57.3531L99.7439 53.563L99.9986 53.5452L100.253 53.563L132.891 57.3531L134.067 57.4901L134.621 58.5374ZM105.455 139.091C104.813 138.254 103.987 137.576 103.041 137.109C102.095 136.643 101.055 136.4 100 136.4C98.9452 136.4 97.9045 136.643 96.9586 137.109C96.0126 137.576 95.1866 138.254 94.5445 139.091C93.371 140.398 91.7912 141.272 90.0599 141.572C87.3474 141.681 84.6409 141.238 82.1048 140.269C79.5688 139.3 77.256 137.826 75.3068 135.937C71.0115 131.937 67.601 127.082 65.2947 121.685C62.7481 116.013 61.2003 109.943 60.7196 103.744C60.1334 95.5097 61.7499 87.7661 66.2281 82.7124C68.0059 80.6857 70.2405 79.1113 72.7472 78.1194C75.2539 77.1274 77.9607 76.7463 80.6439 77.0076C83.8625 77.4501 87.028 78.2176 90.0918 79.2985C93.2668 80.5048 96.6085 81.2152 99.9995 81.405C103.37 81.2162 106.692 80.5075 109.846 79.3041C112.865 78.237 115.982 77.4743 119.153 77.0274C121.851 76.751 124.576 77.1115 127.11 78.0798H127.119C129.637 79.0562 131.89 80.6133 133.693 82.6243C138.235 87.6513 139.874 95.4331 139.284 103.721C138.808 109.869 137.284 115.89 134.776 121.524C132.497 126.895 129.134 131.738 124.899 135.75C122.938 137.694 120.598 139.214 118.025 140.216C115.451 141.218 112.7 141.679 109.94 141.572C108.209 141.273 106.629 140.399 105.455 139.091Z" fill="#231F20"/>
</g>
<defs>
<clipPath id="clip0_123_2">
<rect width="200" height="200" fill="white"/>
</clipPath>
</defs>
</svg>
